<mxfile host="app.diagrams.net" modified="2024-07-04T08:01:09.371Z" agent="Mozilla/5.0 (Windows NT 10.0; Win64; x64) AppleWebKit/537.36 (KHTML, like Gecko) Chrome/126.0.0.0 Safari/537.36" etag="lh-K8nFs9BNEeZMBqmFY" version="24.6.4" type="device">
  <diagram id="6a731a19-8d31-9384-78a2-239565b7b9f0" name="Page-1">
    <mxGraphModel dx="2726" dy="790" grid="1" gridSize="10" guides="1" tooltips="1" connect="1" arrows="1" fold="1" page="1" pageScale="1" pageWidth="1169" pageHeight="827" background="none" math="0" shadow="0">
      <root>
        <mxCell id="0" />
        <mxCell id="1" parent="0" />
        <mxCell id="89" value="" style="edgeStyle=orthogonalEdgeStyle;rounded=1;jumpStyle=none;html=1;labelBackgroundColor=#ffffff;startArrow=none;startFill=0;endArrow=classic;jettySize=auto;orthogonalLoop=1;strokeColor=#0C343D;strokeWidth=3;fontFamily=Helvetica;fontSize=11;fontColor=#000000;" parent="1" source="90" target="UZtejUUfSkAsNXARZR-b-393" edge="1">
          <mxGeometry relative="1" as="geometry">
            <Array as="points">
              <mxPoint x="265" y="885" />
            </Array>
            <mxPoint x="135" y="970" as="targetPoint" />
          </mxGeometry>
        </mxCell>
        <mxCell id="90" value="&lt;font color=&quot;#f7f7f7&quot;&gt;START&lt;/font&gt;" style="rounded=1;fillColor=#23445D;strokeColor=none;strokeWidth=2;fontFamily=Helvetica;html=1;gradientColor=none;" parent="1" vertex="1">
          <mxGeometry x="71.00455782312929" y="860" width="127" height="50" as="geometry" />
        </mxCell>
        <mxCell id="92" value="&lt;font color=&quot;#f2f2f2&quot;&gt;Perjumpaan Awal&lt;/font&gt;" style="rounded=1;fillColor=#23445D;strokeColor=none;strokeWidth=2;fontFamily=Helvetica;html=1;gradientColor=none;" parent="1" vertex="1">
          <mxGeometry x="531.2537414965986" y="970" width="127" height="50" as="geometry" />
        </mxCell>
        <mxCell id="UZtejUUfSkAsNXARZR-b-146" value="&lt;font color=&quot;#f2f2f2&quot;&gt;Menu Utama&lt;/font&gt;" style="rounded=1;fillColor=#23445D;strokeColor=none;strokeWidth=2;fontFamily=Helvetica;html=1;gradientColor=none;" parent="1" vertex="1">
          <mxGeometry x="531.2537414965986" y="1044.5" width="127" height="50" as="geometry" />
        </mxCell>
        <mxCell id="UZtejUUfSkAsNXARZR-b-147" style="edgeStyle=orthogonalEdgeStyle;rounded=1;jumpStyle=none;html=1;labelBackgroundColor=#ffffff;startArrow=none;startFill=0;endArrow=classic;jettySize=auto;orthogonalLoop=1;strokeColor=#0C343D;strokeWidth=3;fontFamily=Helvetica;fontSize=11;fontColor=#000000;" parent="1" source="92" target="UZtejUUfSkAsNXARZR-b-146" edge="1">
          <mxGeometry relative="1" as="geometry">
            <Array as="points" />
            <mxPoint x="605.25" y="914.5" as="sourcePoint" />
            <mxPoint x="605.25" y="980.5" as="targetPoint" />
          </mxGeometry>
        </mxCell>
        <mxCell id="UZtejUUfSkAsNXARZR-b-149" value="&lt;font color=&quot;#f2f2f2&quot;&gt;Pemilihan Produk&lt;/font&gt;" style="rounded=1;fillColor=#23445D;strokeColor=none;strokeWidth=2;fontFamily=Helvetica;html=1;gradientColor=none;" parent="1" vertex="1">
          <mxGeometry x="875.2537414965986" y="1105.5" width="127" height="50" as="geometry" />
        </mxCell>
        <mxCell id="UZtejUUfSkAsNXARZR-b-150" value="&lt;font color=&quot;#f2f2f2&quot;&gt;Keranjang Belanja&lt;/font&gt;" style="rounded=1;fillColor=#23445D;strokeColor=none;strokeWidth=2;fontFamily=Helvetica;html=1;gradientColor=none;" parent="1" vertex="1">
          <mxGeometry x="1249.2537414965986" y="1105.5" width="127" height="50" as="geometry" />
        </mxCell>
        <mxCell id="UZtejUUfSkAsNXARZR-b-151" value="&lt;font color=&quot;#f2f2f2&quot;&gt;Mode Administrator&lt;/font&gt;" style="rounded=1;fillColor=#23445D;strokeColor=none;strokeWidth=2;fontFamily=Helvetica;html=1;gradientColor=none;" parent="1" vertex="1">
          <mxGeometry x="1680.0037414965986" y="1105.5" width="127" height="50" as="geometry" />
        </mxCell>
        <mxCell id="UZtejUUfSkAsNXARZR-b-153" style="edgeStyle=orthogonalEdgeStyle;rounded=1;jumpStyle=none;html=1;labelBackgroundColor=#ffffff;startArrow=none;startFill=0;endArrow=classic;jettySize=auto;orthogonalLoop=1;strokeColor=#0C343D;strokeWidth=3;fontFamily=Helvetica;fontSize=11;fontColor=#000000;" parent="1" source="UZtejUUfSkAsNXARZR-b-146" target="UZtejUUfSkAsNXARZR-b-149" edge="1">
          <mxGeometry relative="1" as="geometry">
            <Array as="points" />
            <mxPoint x="605.25" y="924.5" as="sourcePoint" />
            <mxPoint x="953.75" y="954.5" as="targetPoint" />
          </mxGeometry>
        </mxCell>
        <mxCell id="UZtejUUfSkAsNXARZR-b-154" style="edgeStyle=orthogonalEdgeStyle;rounded=1;jumpStyle=none;html=1;labelBackgroundColor=#ffffff;startArrow=none;startFill=0;endArrow=classic;jettySize=auto;orthogonalLoop=1;strokeColor=#0C343D;strokeWidth=3;fontFamily=Helvetica;fontSize=11;fontColor=#000000;" parent="1" source="UZtejUUfSkAsNXARZR-b-146" target="UZtejUUfSkAsNXARZR-b-150" edge="1">
          <mxGeometry relative="1" as="geometry">
            <Array as="points" />
            <mxPoint x="668.25" y="899.5" as="sourcePoint" />
            <mxPoint x="1303.75" y="954.5" as="targetPoint" />
          </mxGeometry>
        </mxCell>
        <mxCell id="UZtejUUfSkAsNXARZR-b-155" style="edgeStyle=orthogonalEdgeStyle;rounded=1;jumpStyle=none;html=1;labelBackgroundColor=#ffffff;startArrow=none;startFill=0;endArrow=classic;jettySize=auto;orthogonalLoop=1;strokeColor=#0C343D;strokeWidth=3;fontFamily=Helvetica;fontSize=11;fontColor=#000000;" parent="1" source="UZtejUUfSkAsNXARZR-b-146" target="UZtejUUfSkAsNXARZR-b-151" edge="1">
          <mxGeometry relative="1" as="geometry">
            <Array as="points" />
            <mxPoint x="668.25" y="1079.5" as="sourcePoint" />
            <mxPoint x="967.25" y="1144.5" as="targetPoint" />
          </mxGeometry>
        </mxCell>
        <mxCell id="UZtejUUfSkAsNXARZR-b-157" style="edgeStyle=orthogonalEdgeStyle;rounded=1;jumpStyle=none;html=1;labelBackgroundColor=#ffffff;startArrow=none;startFill=0;endArrow=classic;jettySize=auto;orthogonalLoop=1;strokeColor=#0C343D;strokeWidth=3;fontFamily=Helvetica;fontSize=11;fontColor=#000000;" parent="1" source="UZtejUUfSkAsNXARZR-b-146" target="UZtejUUfSkAsNXARZR-b-188" edge="1">
          <mxGeometry relative="1" as="geometry">
            <Array as="points" />
            <mxPoint x="134.75" y="1884.5" as="sourcePoint" />
            <mxPoint x="134.75" y="1834.5" as="targetPoint" />
          </mxGeometry>
        </mxCell>
        <mxCell id="UZtejUUfSkAsNXARZR-b-188" value="&lt;font color=&quot;#f2f2f2&quot;&gt;Pencarian isi di&amp;nbsp;&lt;/font&gt;&lt;div&gt;&lt;font color=&quot;#f2f2f2&quot;&gt;full_produk&lt;/font&gt;&lt;div&gt;&lt;font color=&quot;#f2f2f2&quot;&gt;(Berdasarkan Nama)&lt;/font&gt;&lt;/div&gt;&lt;/div&gt;" style="rounded=1;fillColor=#23445D;strokeColor=none;strokeWidth=2;fontFamily=Helvetica;html=1;gradientColor=none;" parent="1" vertex="1">
          <mxGeometry x="520.25" y="1125.5" width="149" height="70" as="geometry" />
        </mxCell>
        <mxCell id="UZtejUUfSkAsNXARZR-b-190" value="&lt;font color=&quot;#f2f2f2&quot;&gt;Senjata&lt;/font&gt;&lt;div&gt;&lt;font color=&quot;#f2f2f2&quot;&gt;(pistol, smg, shotgun, sniper_rifle&lt;/font&gt;&lt;/div&gt;&lt;div&gt;&lt;font color=&quot;#f2f2f2&quot;&gt;dan assault_rifle)&lt;/font&gt;&lt;/div&gt;" style="rounded=1;fillColor=#23445D;strokeColor=none;strokeWidth=2;fontFamily=Helvetica;html=1;gradientColor=none;" parent="1" vertex="1">
          <mxGeometry x="720.25" y="1195.5" width="190" height="70" as="geometry" />
        </mxCell>
        <mxCell id="UZtejUUfSkAsNXARZR-b-191" value="&lt;font color=&quot;#f2f2f2&quot;&gt;Peralatan dan lain - lain&lt;/font&gt;&lt;div&gt;&lt;font color=&quot;#f2f2f2&quot;&gt;(equip, throwable dan ammo)&lt;/font&gt;&lt;/div&gt;" style="rounded=1;fillColor=#23445D;strokeColor=none;strokeWidth=2;fontFamily=Helvetica;html=1;gradientColor=none;" parent="1" vertex="1">
          <mxGeometry x="970.5" y="1195.5" width="177" height="70" as="geometry" />
        </mxCell>
        <mxCell id="UZtejUUfSkAsNXARZR-b-192" style="edgeStyle=orthogonalEdgeStyle;rounded=1;jumpStyle=none;html=1;labelBackgroundColor=#ffffff;startArrow=none;startFill=0;endArrow=classic;jettySize=auto;orthogonalLoop=1;strokeColor=#0C343D;strokeWidth=3;fontFamily=Helvetica;fontSize=11;fontColor=#000000;" parent="1" source="UZtejUUfSkAsNXARZR-b-149" edge="1">
          <mxGeometry relative="1" as="geometry">
            <Array as="points">
              <mxPoint x="814.25" y="1120.5" />
            </Array>
            <mxPoint x="688.25" y="1040.5" as="sourcePoint" />
            <mxPoint x="814.2499999999998" y="1195.5" as="targetPoint" />
          </mxGeometry>
        </mxCell>
        <mxCell id="UZtejUUfSkAsNXARZR-b-193" style="edgeStyle=orthogonalEdgeStyle;rounded=1;jumpStyle=none;html=1;labelBackgroundColor=#ffffff;startArrow=none;startFill=0;endArrow=classic;jettySize=auto;orthogonalLoop=1;strokeColor=#0C343D;strokeWidth=3;fontFamily=Helvetica;fontSize=11;fontColor=#000000;" parent="1" source="UZtejUUfSkAsNXARZR-b-149" target="UZtejUUfSkAsNXARZR-b-191" edge="1">
          <mxGeometry relative="1" as="geometry">
            <Array as="points">
              <mxPoint x="1059" y="1121" />
            </Array>
            <mxPoint x="755" y="1050.5" as="sourcePoint" />
            <mxPoint x="1080.2499999999998" y="1195.5" as="targetPoint" />
          </mxGeometry>
        </mxCell>
        <mxCell id="UZtejUUfSkAsNXARZR-b-244" style="edgeStyle=orthogonalEdgeStyle;rounded=1;jumpStyle=none;html=1;labelBackgroundColor=#ffffff;startArrow=none;startFill=0;endArrow=classic;jettySize=auto;orthogonalLoop=1;strokeColor=#0C343D;strokeWidth=3;fontFamily=Helvetica;fontSize=11;fontColor=#000000;" parent="1" target="oTxWkRt0Lg_ctlkLbNbN-94" edge="1">
          <mxGeometry relative="1" as="geometry">
            <Array as="points">
              <mxPoint x="815" y="1350" />
            </Array>
            <mxPoint x="815.2499999999998" y="1265.5" as="sourcePoint" />
            <mxPoint x="815.2499999999998" y="1315.5" as="targetPoint" />
          </mxGeometry>
        </mxCell>
        <mxCell id="UZtejUUfSkAsNXARZR-b-270" style="edgeStyle=orthogonalEdgeStyle;rounded=1;jumpStyle=none;html=1;labelBackgroundColor=#ffffff;startArrow=none;startFill=0;endArrow=classic;jettySize=auto;orthogonalLoop=1;strokeColor=#0C343D;strokeWidth=3;fontFamily=Helvetica;fontSize=11;fontColor=#000000;" parent="1" source="UZtejUUfSkAsNXARZR-b-191" target="oTxWkRt0Lg_ctlkLbNbN-94" edge="1">
          <mxGeometry relative="1" as="geometry">
            <Array as="points">
              <mxPoint x="1060" y="1345" />
            </Array>
            <mxPoint x="1073.125" y="1265.5" as="sourcePoint" />
            <mxPoint x="1073.13" y="1315.5" as="targetPoint" />
          </mxGeometry>
        </mxCell>
        <mxCell id="UZtejUUfSkAsNXARZR-b-271" value="" style="shape=table;startSize=0;container=1;collapsible=0;childLayout=tableLayout;fontSize=16;fillColor=#dae8fc;strokeColor=#6c8ebf;perimeterSpacing=0;" parent="1" vertex="1">
          <mxGeometry x="168.25" y="1580" width="140" height="170" as="geometry" />
        </mxCell>
        <mxCell id="UZtejUUfSkAsNXARZR-b-272" value="" style="shape=tableRow;horizontal=0;startSize=0;swimlaneHead=0;swimlaneBody=0;strokeColor=inherit;top=0;left=0;bottom=0;right=0;collapsible=0;dropTarget=0;fillColor=none;points=[[0,0.5],[1,0.5]];portConstraint=eastwest;fontSize=16;" parent="UZtejUUfSkAsNXARZR-b-271" vertex="1">
          <mxGeometry width="140" height="34" as="geometry" />
        </mxCell>
        <mxCell id="UZtejUUfSkAsNXARZR-b-273" value="" style="shape=partialRectangle;html=1;whiteSpace=wrap;connectable=0;strokeColor=inherit;overflow=hidden;fillColor=none;top=0;left=0;bottom=0;right=0;pointerEvents=1;fontSize=16;" parent="UZtejUUfSkAsNXARZR-b-272" vertex="1">
          <mxGeometry width="11" height="34" as="geometry">
            <mxRectangle width="11" height="34" as="alternateBounds" />
          </mxGeometry>
        </mxCell>
        <mxCell id="UZtejUUfSkAsNXARZR-b-274" value="&lt;font style=&quot;font-size: 12px;&quot;&gt;id&lt;/font&gt;" style="shape=partialRectangle;html=1;whiteSpace=wrap;connectable=0;strokeColor=inherit;overflow=hidden;fillColor=none;top=0;left=0;bottom=0;right=0;pointerEvents=1;fontSize=16;" parent="UZtejUUfSkAsNXARZR-b-272" vertex="1">
          <mxGeometry x="11" width="119" height="34" as="geometry">
            <mxRectangle width="119" height="34" as="alternateBounds" />
          </mxGeometry>
        </mxCell>
        <mxCell id="UZtejUUfSkAsNXARZR-b-275" value="" style="shape=partialRectangle;html=1;whiteSpace=wrap;connectable=0;strokeColor=inherit;overflow=hidden;fillColor=none;top=0;left=0;bottom=0;right=0;pointerEvents=1;fontSize=16;" parent="UZtejUUfSkAsNXARZR-b-272" vertex="1">
          <mxGeometry x="130" width="10" height="34" as="geometry">
            <mxRectangle width="10" height="34" as="alternateBounds" />
          </mxGeometry>
        </mxCell>
        <mxCell id="UZtejUUfSkAsNXARZR-b-276" value="" style="shape=tableRow;horizontal=0;startSize=0;swimlaneHead=0;swimlaneBody=0;strokeColor=inherit;top=0;left=0;bottom=0;right=0;collapsible=0;dropTarget=0;fillColor=none;points=[[0,0.5],[1,0.5]];portConstraint=eastwest;fontSize=16;" parent="UZtejUUfSkAsNXARZR-b-271" vertex="1">
          <mxGeometry y="34" width="140" height="34" as="geometry" />
        </mxCell>
        <mxCell id="UZtejUUfSkAsNXARZR-b-277" value="" style="shape=partialRectangle;html=1;whiteSpace=wrap;connectable=0;strokeColor=inherit;overflow=hidden;fillColor=none;top=0;left=0;bottom=0;right=0;pointerEvents=1;fontSize=16;" parent="UZtejUUfSkAsNXARZR-b-276" vertex="1">
          <mxGeometry width="11" height="34" as="geometry">
            <mxRectangle width="11" height="34" as="alternateBounds" />
          </mxGeometry>
        </mxCell>
        <mxCell id="UZtejUUfSkAsNXARZR-b-278" value="&lt;font style=&quot;font-size: 12px;&quot;&gt;jenis&lt;/font&gt;" style="shape=partialRectangle;html=1;whiteSpace=wrap;connectable=0;strokeColor=inherit;overflow=hidden;fillColor=none;top=0;left=0;bottom=0;right=0;pointerEvents=1;fontSize=16;" parent="UZtejUUfSkAsNXARZR-b-276" vertex="1">
          <mxGeometry x="11" width="119" height="34" as="geometry">
            <mxRectangle width="119" height="34" as="alternateBounds" />
          </mxGeometry>
        </mxCell>
        <mxCell id="UZtejUUfSkAsNXARZR-b-279" value="" style="shape=partialRectangle;html=1;whiteSpace=wrap;connectable=0;strokeColor=inherit;overflow=hidden;fillColor=none;top=0;left=0;bottom=0;right=0;pointerEvents=1;fontSize=16;" parent="UZtejUUfSkAsNXARZR-b-276" vertex="1">
          <mxGeometry x="130" width="10" height="34" as="geometry">
            <mxRectangle width="10" height="34" as="alternateBounds" />
          </mxGeometry>
        </mxCell>
        <mxCell id="UZtejUUfSkAsNXARZR-b-280" value="" style="shape=tableRow;horizontal=0;startSize=0;swimlaneHead=0;swimlaneBody=0;strokeColor=inherit;top=0;left=0;bottom=0;right=0;collapsible=0;dropTarget=0;fillColor=none;points=[[0,0.5],[1,0.5]];portConstraint=eastwest;fontSize=16;" parent="UZtejUUfSkAsNXARZR-b-271" vertex="1">
          <mxGeometry y="68" width="140" height="34" as="geometry" />
        </mxCell>
        <mxCell id="UZtejUUfSkAsNXARZR-b-281" value="" style="shape=partialRectangle;html=1;whiteSpace=wrap;connectable=0;strokeColor=inherit;overflow=hidden;fillColor=none;top=0;left=0;bottom=0;right=0;pointerEvents=1;fontSize=16;" parent="UZtejUUfSkAsNXARZR-b-280" vertex="1">
          <mxGeometry width="11" height="34" as="geometry">
            <mxRectangle width="11" height="34" as="alternateBounds" />
          </mxGeometry>
        </mxCell>
        <mxCell id="UZtejUUfSkAsNXARZR-b-282" value="&lt;font style=&quot;font-size: 12px;&quot;&gt;nama&lt;/font&gt;" style="shape=partialRectangle;html=1;whiteSpace=wrap;connectable=0;strokeColor=inherit;overflow=hidden;fillColor=none;top=0;left=0;bottom=0;right=0;pointerEvents=1;fontSize=16;" parent="UZtejUUfSkAsNXARZR-b-280" vertex="1">
          <mxGeometry x="11" width="119" height="34" as="geometry">
            <mxRectangle width="119" height="34" as="alternateBounds" />
          </mxGeometry>
        </mxCell>
        <mxCell id="UZtejUUfSkAsNXARZR-b-283" value="" style="shape=partialRectangle;html=1;whiteSpace=wrap;connectable=0;strokeColor=inherit;overflow=hidden;fillColor=none;top=0;left=0;bottom=0;right=0;pointerEvents=1;fontSize=16;" parent="UZtejUUfSkAsNXARZR-b-280" vertex="1">
          <mxGeometry x="130" width="10" height="34" as="geometry">
            <mxRectangle width="10" height="34" as="alternateBounds" />
          </mxGeometry>
        </mxCell>
        <mxCell id="UZtejUUfSkAsNXARZR-b-284" value="" style="shape=tableRow;horizontal=0;startSize=0;swimlaneHead=0;swimlaneBody=0;strokeColor=inherit;top=0;left=0;bottom=0;right=0;collapsible=0;dropTarget=0;fillColor=none;points=[[0,0.5],[1,0.5]];portConstraint=eastwest;fontSize=16;" parent="UZtejUUfSkAsNXARZR-b-271" vertex="1">
          <mxGeometry y="102" width="140" height="34" as="geometry" />
        </mxCell>
        <mxCell id="UZtejUUfSkAsNXARZR-b-285" value="" style="shape=partialRectangle;html=1;whiteSpace=wrap;connectable=0;strokeColor=inherit;overflow=hidden;fillColor=none;top=0;left=0;bottom=0;right=0;pointerEvents=1;fontSize=16;" parent="UZtejUUfSkAsNXARZR-b-284" vertex="1">
          <mxGeometry width="11" height="34" as="geometry">
            <mxRectangle width="11" height="34" as="alternateBounds" />
          </mxGeometry>
        </mxCell>
        <mxCell id="UZtejUUfSkAsNXARZR-b-286" value="&lt;font style=&quot;font-size: 12px;&quot;&gt;harga&lt;/font&gt;" style="shape=partialRectangle;html=1;whiteSpace=wrap;connectable=0;strokeColor=inherit;overflow=hidden;fillColor=none;top=0;left=0;bottom=0;right=0;pointerEvents=1;fontSize=16;" parent="UZtejUUfSkAsNXARZR-b-284" vertex="1">
          <mxGeometry x="11" width="119" height="34" as="geometry">
            <mxRectangle width="119" height="34" as="alternateBounds" />
          </mxGeometry>
        </mxCell>
        <mxCell id="UZtejUUfSkAsNXARZR-b-287" value="" style="shape=partialRectangle;html=1;whiteSpace=wrap;connectable=0;strokeColor=inherit;overflow=hidden;fillColor=none;top=0;left=0;bottom=0;right=0;pointerEvents=1;fontSize=16;" parent="UZtejUUfSkAsNXARZR-b-284" vertex="1">
          <mxGeometry x="130" width="10" height="34" as="geometry">
            <mxRectangle width="10" height="34" as="alternateBounds" />
          </mxGeometry>
        </mxCell>
        <mxCell id="UZtejUUfSkAsNXARZR-b-288" value="" style="shape=tableRow;horizontal=0;startSize=0;swimlaneHead=0;swimlaneBody=0;strokeColor=inherit;top=0;left=0;bottom=0;right=0;collapsible=0;dropTarget=0;fillColor=none;points=[[0,0.5],[1,0.5]];portConstraint=eastwest;fontSize=16;" parent="UZtejUUfSkAsNXARZR-b-271" vertex="1">
          <mxGeometry y="136" width="140" height="34" as="geometry" />
        </mxCell>
        <mxCell id="UZtejUUfSkAsNXARZR-b-289" value="" style="shape=partialRectangle;html=1;whiteSpace=wrap;connectable=0;strokeColor=inherit;overflow=hidden;fillColor=none;top=0;left=0;bottom=0;right=0;pointerEvents=1;fontSize=16;" parent="UZtejUUfSkAsNXARZR-b-288" vertex="1">
          <mxGeometry width="11" height="34" as="geometry">
            <mxRectangle width="11" height="34" as="alternateBounds" />
          </mxGeometry>
        </mxCell>
        <mxCell id="UZtejUUfSkAsNXARZR-b-290" value="&lt;font style=&quot;font-size: 12px;&quot;&gt;stok&lt;/font&gt;" style="shape=partialRectangle;html=1;whiteSpace=wrap;connectable=0;strokeColor=inherit;overflow=hidden;fillColor=none;top=0;left=0;bottom=0;right=0;pointerEvents=1;fontSize=16;" parent="UZtejUUfSkAsNXARZR-b-288" vertex="1">
          <mxGeometry x="11" width="119" height="34" as="geometry">
            <mxRectangle width="119" height="34" as="alternateBounds" />
          </mxGeometry>
        </mxCell>
        <mxCell id="UZtejUUfSkAsNXARZR-b-291" value="" style="shape=partialRectangle;html=1;whiteSpace=wrap;connectable=0;strokeColor=inherit;overflow=hidden;fillColor=none;top=0;left=0;bottom=0;right=0;pointerEvents=1;fontSize=16;" parent="UZtejUUfSkAsNXARZR-b-288" vertex="1">
          <mxGeometry x="130" width="10" height="34" as="geometry">
            <mxRectangle width="10" height="34" as="alternateBounds" />
          </mxGeometry>
        </mxCell>
        <mxCell id="UZtejUUfSkAsNXARZR-b-342" value="" style="shape=table;startSize=0;container=1;collapsible=0;childLayout=tableLayout;fontSize=16;fillColor=#dae8fc;strokeColor=#6c8ebf;perimeterSpacing=0;" parent="1" vertex="1">
          <mxGeometry x="71.74000000000001" y="1180" width="169.76" height="230" as="geometry" />
        </mxCell>
        <mxCell id="UZtejUUfSkAsNXARZR-b-343" value="" style="shape=tableRow;horizontal=0;startSize=0;swimlaneHead=0;swimlaneBody=0;strokeColor=inherit;top=0;left=0;bottom=0;right=0;collapsible=0;dropTarget=0;fillColor=none;points=[[0,0.5],[1,0.5]];portConstraint=eastwest;fontSize=16;" parent="UZtejUUfSkAsNXARZR-b-342" vertex="1">
          <mxGeometry width="169.76" height="38" as="geometry" />
        </mxCell>
        <mxCell id="UZtejUUfSkAsNXARZR-b-344" value="" style="shape=partialRectangle;html=1;whiteSpace=wrap;connectable=0;strokeColor=inherit;overflow=hidden;fillColor=none;top=0;left=0;bottom=0;right=0;pointerEvents=1;fontSize=16;" parent="UZtejUUfSkAsNXARZR-b-343" vertex="1">
          <mxGeometry width="13" height="38" as="geometry">
            <mxRectangle width="13" height="38" as="alternateBounds" />
          </mxGeometry>
        </mxCell>
        <mxCell id="UZtejUUfSkAsNXARZR-b-345" value="&lt;font style=&quot;font-size: 12px;&quot;&gt;id&lt;/font&gt;" style="shape=partialRectangle;html=1;whiteSpace=wrap;connectable=0;strokeColor=inherit;overflow=hidden;fillColor=none;top=0;left=0;bottom=0;right=0;pointerEvents=1;fontSize=16;" parent="UZtejUUfSkAsNXARZR-b-343" vertex="1">
          <mxGeometry x="13" width="144" height="38" as="geometry">
            <mxRectangle width="144" height="38" as="alternateBounds" />
          </mxGeometry>
        </mxCell>
        <mxCell id="UZtejUUfSkAsNXARZR-b-346" value="" style="shape=partialRectangle;html=1;whiteSpace=wrap;connectable=0;strokeColor=inherit;overflow=hidden;fillColor=none;top=0;left=0;bottom=0;right=0;pointerEvents=1;fontSize=16;" parent="UZtejUUfSkAsNXARZR-b-343" vertex="1">
          <mxGeometry x="157" width="13" height="38" as="geometry">
            <mxRectangle width="13" height="38" as="alternateBounds" />
          </mxGeometry>
        </mxCell>
        <mxCell id="UZtejUUfSkAsNXARZR-b-347" value="" style="shape=tableRow;horizontal=0;startSize=0;swimlaneHead=0;swimlaneBody=0;strokeColor=inherit;top=0;left=0;bottom=0;right=0;collapsible=0;dropTarget=0;fillColor=none;points=[[0,0.5],[1,0.5]];portConstraint=eastwest;fontSize=16;" parent="UZtejUUfSkAsNXARZR-b-342" vertex="1">
          <mxGeometry y="38" width="169.76" height="39" as="geometry" />
        </mxCell>
        <mxCell id="UZtejUUfSkAsNXARZR-b-348" value="" style="shape=partialRectangle;html=1;whiteSpace=wrap;connectable=0;strokeColor=inherit;overflow=hidden;fillColor=none;top=0;left=0;bottom=0;right=0;pointerEvents=1;fontSize=16;" parent="UZtejUUfSkAsNXARZR-b-347" vertex="1">
          <mxGeometry width="13" height="39" as="geometry">
            <mxRectangle width="13" height="39" as="alternateBounds" />
          </mxGeometry>
        </mxCell>
        <mxCell id="UZtejUUfSkAsNXARZR-b-349" value="&lt;font style=&quot;font-size: 12px;&quot;&gt;jenis_peluru&lt;/font&gt;" style="shape=partialRectangle;html=1;whiteSpace=wrap;connectable=0;strokeColor=inherit;overflow=hidden;fillColor=none;top=0;left=0;bottom=0;right=0;pointerEvents=1;fontSize=16;" parent="UZtejUUfSkAsNXARZR-b-347" vertex="1">
          <mxGeometry x="13" width="144" height="39" as="geometry">
            <mxRectangle width="144" height="39" as="alternateBounds" />
          </mxGeometry>
        </mxCell>
        <mxCell id="UZtejUUfSkAsNXARZR-b-350" value="" style="shape=partialRectangle;html=1;whiteSpace=wrap;connectable=0;strokeColor=inherit;overflow=hidden;fillColor=none;top=0;left=0;bottom=0;right=0;pointerEvents=1;fontSize=16;" parent="UZtejUUfSkAsNXARZR-b-347" vertex="1">
          <mxGeometry x="157" width="13" height="39" as="geometry">
            <mxRectangle width="13" height="39" as="alternateBounds" />
          </mxGeometry>
        </mxCell>
        <mxCell id="UZtejUUfSkAsNXARZR-b-351" value="" style="shape=tableRow;horizontal=0;startSize=0;swimlaneHead=0;swimlaneBody=0;strokeColor=inherit;top=0;left=0;bottom=0;right=0;collapsible=0;dropTarget=0;fillColor=none;points=[[0,0.5],[1,0.5]];portConstraint=eastwest;fontSize=16;" parent="UZtejUUfSkAsNXARZR-b-342" vertex="1">
          <mxGeometry y="77" width="169.76" height="38" as="geometry" />
        </mxCell>
        <mxCell id="UZtejUUfSkAsNXARZR-b-352" value="" style="shape=partialRectangle;html=1;whiteSpace=wrap;connectable=0;strokeColor=inherit;overflow=hidden;fillColor=none;top=0;left=0;bottom=0;right=0;pointerEvents=1;fontSize=16;" parent="UZtejUUfSkAsNXARZR-b-351" vertex="1">
          <mxGeometry width="13" height="38" as="geometry">
            <mxRectangle width="13" height="38" as="alternateBounds" />
          </mxGeometry>
        </mxCell>
        <mxCell id="UZtejUUfSkAsNXARZR-b-353" value="&lt;font style=&quot;font-size: 12px;&quot;&gt;nama&lt;/font&gt;" style="shape=partialRectangle;html=1;whiteSpace=wrap;connectable=0;strokeColor=inherit;overflow=hidden;fillColor=none;top=0;left=0;bottom=0;right=0;pointerEvents=1;fontSize=16;" parent="UZtejUUfSkAsNXARZR-b-351" vertex="1">
          <mxGeometry x="13" width="144" height="38" as="geometry">
            <mxRectangle width="144" height="38" as="alternateBounds" />
          </mxGeometry>
        </mxCell>
        <mxCell id="UZtejUUfSkAsNXARZR-b-354" value="" style="shape=partialRectangle;html=1;whiteSpace=wrap;connectable=0;strokeColor=inherit;overflow=hidden;fillColor=none;top=0;left=0;bottom=0;right=0;pointerEvents=1;fontSize=16;" parent="UZtejUUfSkAsNXARZR-b-351" vertex="1">
          <mxGeometry x="157" width="13" height="38" as="geometry">
            <mxRectangle width="13" height="38" as="alternateBounds" />
          </mxGeometry>
        </mxCell>
        <mxCell id="UZtejUUfSkAsNXARZR-b-355" value="" style="shape=tableRow;horizontal=0;startSize=0;swimlaneHead=0;swimlaneBody=0;strokeColor=inherit;top=0;left=0;bottom=0;right=0;collapsible=0;dropTarget=0;fillColor=none;points=[[0,0.5],[1,0.5]];portConstraint=eastwest;fontSize=16;" parent="UZtejUUfSkAsNXARZR-b-342" vertex="1">
          <mxGeometry y="115" width="169.76" height="38" as="geometry" />
        </mxCell>
        <mxCell id="UZtejUUfSkAsNXARZR-b-356" value="" style="shape=partialRectangle;html=1;whiteSpace=wrap;connectable=0;strokeColor=inherit;overflow=hidden;fillColor=none;top=0;left=0;bottom=0;right=0;pointerEvents=1;fontSize=16;" parent="UZtejUUfSkAsNXARZR-b-355" vertex="1">
          <mxGeometry width="13" height="38" as="geometry">
            <mxRectangle width="13" height="38" as="alternateBounds" />
          </mxGeometry>
        </mxCell>
        <mxCell id="UZtejUUfSkAsNXARZR-b-357" value="&lt;font style=&quot;font-size: 12px;&quot;&gt;harga&lt;/font&gt;" style="shape=partialRectangle;html=1;whiteSpace=wrap;connectable=0;strokeColor=inherit;overflow=hidden;fillColor=none;top=0;left=0;bottom=0;right=0;pointerEvents=1;fontSize=16;" parent="UZtejUUfSkAsNXARZR-b-355" vertex="1">
          <mxGeometry x="13" width="144" height="38" as="geometry">
            <mxRectangle width="144" height="38" as="alternateBounds" />
          </mxGeometry>
        </mxCell>
        <mxCell id="UZtejUUfSkAsNXARZR-b-358" value="" style="shape=partialRectangle;html=1;whiteSpace=wrap;connectable=0;strokeColor=inherit;overflow=hidden;fillColor=none;top=0;left=0;bottom=0;right=0;pointerEvents=1;fontSize=16;" parent="UZtejUUfSkAsNXARZR-b-355" vertex="1">
          <mxGeometry x="157" width="13" height="38" as="geometry">
            <mxRectangle width="13" height="38" as="alternateBounds" />
          </mxGeometry>
        </mxCell>
        <mxCell id="UZtejUUfSkAsNXARZR-b-359" value="" style="shape=tableRow;horizontal=0;startSize=0;swimlaneHead=0;swimlaneBody=0;strokeColor=inherit;top=0;left=0;bottom=0;right=0;collapsible=0;dropTarget=0;fillColor=none;points=[[0,0.5],[1,0.5]];portConstraint=eastwest;fontSize=16;" parent="UZtejUUfSkAsNXARZR-b-342" vertex="1">
          <mxGeometry y="153" width="169.76" height="39" as="geometry" />
        </mxCell>
        <mxCell id="UZtejUUfSkAsNXARZR-b-360" value="" style="shape=partialRectangle;html=1;whiteSpace=wrap;connectable=0;strokeColor=inherit;overflow=hidden;fillColor=none;top=0;left=0;bottom=0;right=0;pointerEvents=1;fontSize=16;" parent="UZtejUUfSkAsNXARZR-b-359" vertex="1">
          <mxGeometry width="13" height="39" as="geometry">
            <mxRectangle width="13" height="39" as="alternateBounds" />
          </mxGeometry>
        </mxCell>
        <mxCell id="UZtejUUfSkAsNXARZR-b-361" value="&lt;font style=&quot;font-size: 12px;&quot;&gt;stok&lt;/font&gt;" style="shape=partialRectangle;html=1;whiteSpace=wrap;connectable=0;strokeColor=inherit;overflow=hidden;fillColor=none;top=0;left=0;bottom=0;right=0;pointerEvents=1;fontSize=16;" parent="UZtejUUfSkAsNXARZR-b-359" vertex="1">
          <mxGeometry x="13" width="144" height="39" as="geometry">
            <mxRectangle width="144" height="39" as="alternateBounds" />
          </mxGeometry>
        </mxCell>
        <mxCell id="UZtejUUfSkAsNXARZR-b-362" value="" style="shape=partialRectangle;html=1;whiteSpace=wrap;connectable=0;strokeColor=inherit;overflow=hidden;fillColor=none;top=0;left=0;bottom=0;right=0;pointerEvents=1;fontSize=16;" parent="UZtejUUfSkAsNXARZR-b-359" vertex="1">
          <mxGeometry x="157" width="13" height="39" as="geometry">
            <mxRectangle width="13" height="39" as="alternateBounds" />
          </mxGeometry>
        </mxCell>
        <mxCell id="UZtejUUfSkAsNXARZR-b-363" value="" style="shape=tableRow;horizontal=0;startSize=0;swimlaneHead=0;swimlaneBody=0;strokeColor=inherit;top=0;left=0;bottom=0;right=0;collapsible=0;dropTarget=0;fillColor=none;points=[[0,0.5],[1,0.5]];portConstraint=eastwest;fontSize=16;" parent="UZtejUUfSkAsNXARZR-b-342" vertex="1">
          <mxGeometry y="192" width="169.76" height="38" as="geometry" />
        </mxCell>
        <mxCell id="UZtejUUfSkAsNXARZR-b-364" value="" style="shape=partialRectangle;html=1;whiteSpace=wrap;connectable=0;strokeColor=inherit;overflow=hidden;fillColor=none;top=0;left=0;bottom=0;right=0;pointerEvents=1;fontSize=16;" parent="UZtejUUfSkAsNXARZR-b-363" vertex="1">
          <mxGeometry width="13" height="38" as="geometry">
            <mxRectangle width="13" height="38" as="alternateBounds" />
          </mxGeometry>
        </mxCell>
        <mxCell id="UZtejUUfSkAsNXARZR-b-365" value="&lt;font style=&quot;font-size: 12px;&quot;&gt;jenis&lt;/font&gt;" style="shape=partialRectangle;html=1;whiteSpace=wrap;connectable=0;strokeColor=inherit;overflow=hidden;fillColor=none;top=0;left=0;bottom=0;right=0;pointerEvents=1;fontSize=16;" parent="UZtejUUfSkAsNXARZR-b-363" vertex="1">
          <mxGeometry x="13" width="144" height="38" as="geometry">
            <mxRectangle width="144" height="38" as="alternateBounds" />
          </mxGeometry>
        </mxCell>
        <mxCell id="UZtejUUfSkAsNXARZR-b-366" value="" style="shape=partialRectangle;html=1;whiteSpace=wrap;connectable=0;strokeColor=inherit;overflow=hidden;fillColor=none;top=0;left=0;bottom=0;right=0;pointerEvents=1;fontSize=16;" parent="UZtejUUfSkAsNXARZR-b-363" vertex="1">
          <mxGeometry x="157" width="13" height="38" as="geometry">
            <mxRectangle width="13" height="38" as="alternateBounds" />
          </mxGeometry>
        </mxCell>
        <mxCell id="UZtejUUfSkAsNXARZR-b-367" value="" style="shape=table;startSize=0;container=1;collapsible=0;childLayout=tableLayout;fontSize=16;fillColor=#dae8fc;strokeColor=#6c8ebf;perimeterSpacing=0;" parent="1" vertex="1">
          <mxGeometry x="259.5" y="1180" width="212.24" height="230" as="geometry" />
        </mxCell>
        <mxCell id="UZtejUUfSkAsNXARZR-b-368" value="" style="shape=tableRow;horizontal=0;startSize=0;swimlaneHead=0;swimlaneBody=0;strokeColor=inherit;top=0;left=0;bottom=0;right=0;collapsible=0;dropTarget=0;fillColor=none;points=[[0,0.5],[1,0.5]];portConstraint=eastwest;fontSize=16;" parent="UZtejUUfSkAsNXARZR-b-367" vertex="1">
          <mxGeometry width="212.24" height="39" as="geometry" />
        </mxCell>
        <mxCell id="UZtejUUfSkAsNXARZR-b-369" value="" style="shape=partialRectangle;html=1;whiteSpace=wrap;connectable=0;strokeColor=inherit;overflow=hidden;fillColor=none;top=0;left=0;bottom=0;right=0;pointerEvents=1;fontSize=16;" parent="UZtejUUfSkAsNXARZR-b-368" vertex="1">
          <mxGeometry width="17" height="39" as="geometry">
            <mxRectangle width="17" height="39" as="alternateBounds" />
          </mxGeometry>
        </mxCell>
        <mxCell id="UZtejUUfSkAsNXARZR-b-370" value="&lt;font style=&quot;font-size: 12px;&quot;&gt;id&lt;/font&gt;" style="shape=partialRectangle;html=1;whiteSpace=wrap;connectable=0;strokeColor=inherit;overflow=hidden;fillColor=none;top=0;left=0;bottom=0;right=0;pointerEvents=1;fontSize=16;" parent="UZtejUUfSkAsNXARZR-b-368" vertex="1">
          <mxGeometry x="17" width="180" height="39" as="geometry">
            <mxRectangle width="180" height="39" as="alternateBounds" />
          </mxGeometry>
        </mxCell>
        <mxCell id="UZtejUUfSkAsNXARZR-b-371" value="" style="shape=partialRectangle;html=1;whiteSpace=wrap;connectable=0;strokeColor=inherit;overflow=hidden;fillColor=none;top=0;left=0;bottom=0;right=0;pointerEvents=1;fontSize=16;" parent="UZtejUUfSkAsNXARZR-b-368" vertex="1">
          <mxGeometry x="197" width="15" height="39" as="geometry">
            <mxRectangle width="15" height="39" as="alternateBounds" />
          </mxGeometry>
        </mxCell>
        <mxCell id="UZtejUUfSkAsNXARZR-b-372" value="" style="shape=tableRow;horizontal=0;startSize=0;swimlaneHead=0;swimlaneBody=0;strokeColor=inherit;top=0;left=0;bottom=0;right=0;collapsible=0;dropTarget=0;fillColor=none;points=[[0,0.5],[1,0.5]];portConstraint=eastwest;fontSize=16;" parent="UZtejUUfSkAsNXARZR-b-367" vertex="1">
          <mxGeometry y="39" width="212.24" height="37" as="geometry" />
        </mxCell>
        <mxCell id="UZtejUUfSkAsNXARZR-b-373" value="" style="shape=partialRectangle;html=1;whiteSpace=wrap;connectable=0;strokeColor=inherit;overflow=hidden;fillColor=none;top=0;left=0;bottom=0;right=0;pointerEvents=1;fontSize=16;" parent="UZtejUUfSkAsNXARZR-b-372" vertex="1">
          <mxGeometry width="17" height="37" as="geometry">
            <mxRectangle width="17" height="37" as="alternateBounds" />
          </mxGeometry>
        </mxCell>
        <mxCell id="UZtejUUfSkAsNXARZR-b-374" value="&lt;font style=&quot;font-size: 12px;&quot;&gt;jenis_equip/ jenis_peluru/&lt;/font&gt;&lt;div style=&quot;font-size: 12px;&quot;&gt;&lt;font style=&quot;font-size: 12px;&quot;&gt;jenis_throwable&lt;/font&gt;&lt;/div&gt;" style="shape=partialRectangle;html=1;whiteSpace=wrap;connectable=0;strokeColor=inherit;overflow=hidden;fillColor=none;top=0;left=0;bottom=0;right=0;pointerEvents=1;fontSize=16;" parent="UZtejUUfSkAsNXARZR-b-372" vertex="1">
          <mxGeometry x="17" width="180" height="37" as="geometry">
            <mxRectangle width="180" height="37" as="alternateBounds" />
          </mxGeometry>
        </mxCell>
        <mxCell id="UZtejUUfSkAsNXARZR-b-375" value="" style="shape=partialRectangle;html=1;whiteSpace=wrap;connectable=0;strokeColor=inherit;overflow=hidden;fillColor=none;top=0;left=0;bottom=0;right=0;pointerEvents=1;fontSize=16;" parent="UZtejUUfSkAsNXARZR-b-372" vertex="1">
          <mxGeometry x="197" width="15" height="37" as="geometry">
            <mxRectangle width="15" height="37" as="alternateBounds" />
          </mxGeometry>
        </mxCell>
        <mxCell id="UZtejUUfSkAsNXARZR-b-376" value="" style="shape=tableRow;horizontal=0;startSize=0;swimlaneHead=0;swimlaneBody=0;strokeColor=inherit;top=0;left=0;bottom=0;right=0;collapsible=0;dropTarget=0;fillColor=none;points=[[0,0.5],[1,0.5]];portConstraint=eastwest;fontSize=16;" parent="UZtejUUfSkAsNXARZR-b-367" vertex="1">
          <mxGeometry y="76" width="212.24" height="39" as="geometry" />
        </mxCell>
        <mxCell id="UZtejUUfSkAsNXARZR-b-377" value="" style="shape=partialRectangle;html=1;whiteSpace=wrap;connectable=0;strokeColor=inherit;overflow=hidden;fillColor=none;top=0;left=0;bottom=0;right=0;pointerEvents=1;fontSize=16;" parent="UZtejUUfSkAsNXARZR-b-376" vertex="1">
          <mxGeometry width="17" height="39" as="geometry">
            <mxRectangle width="17" height="39" as="alternateBounds" />
          </mxGeometry>
        </mxCell>
        <mxCell id="UZtejUUfSkAsNXARZR-b-378" value="&lt;font style=&quot;font-size: 12px;&quot;&gt;nama&lt;/font&gt;" style="shape=partialRectangle;html=1;whiteSpace=wrap;connectable=0;strokeColor=inherit;overflow=hidden;fillColor=none;top=0;left=0;bottom=0;right=0;pointerEvents=1;fontSize=16;" parent="UZtejUUfSkAsNXARZR-b-376" vertex="1">
          <mxGeometry x="17" width="180" height="39" as="geometry">
            <mxRectangle width="180" height="39" as="alternateBounds" />
          </mxGeometry>
        </mxCell>
        <mxCell id="UZtejUUfSkAsNXARZR-b-379" value="" style="shape=partialRectangle;html=1;whiteSpace=wrap;connectable=0;strokeColor=inherit;overflow=hidden;fillColor=none;top=0;left=0;bottom=0;right=0;pointerEvents=1;fontSize=16;" parent="UZtejUUfSkAsNXARZR-b-376" vertex="1">
          <mxGeometry x="197" width="15" height="39" as="geometry">
            <mxRectangle width="15" height="39" as="alternateBounds" />
          </mxGeometry>
        </mxCell>
        <mxCell id="UZtejUUfSkAsNXARZR-b-380" value="" style="shape=tableRow;horizontal=0;startSize=0;swimlaneHead=0;swimlaneBody=0;strokeColor=inherit;top=0;left=0;bottom=0;right=0;collapsible=0;dropTarget=0;fillColor=none;points=[[0,0.5],[1,0.5]];portConstraint=eastwest;fontSize=16;" parent="UZtejUUfSkAsNXARZR-b-367" vertex="1">
          <mxGeometry y="115" width="212.24" height="39" as="geometry" />
        </mxCell>
        <mxCell id="UZtejUUfSkAsNXARZR-b-381" value="" style="shape=partialRectangle;html=1;whiteSpace=wrap;connectable=0;strokeColor=inherit;overflow=hidden;fillColor=none;top=0;left=0;bottom=0;right=0;pointerEvents=1;fontSize=16;" parent="UZtejUUfSkAsNXARZR-b-380" vertex="1">
          <mxGeometry width="17" height="39" as="geometry">
            <mxRectangle width="17" height="39" as="alternateBounds" />
          </mxGeometry>
        </mxCell>
        <mxCell id="UZtejUUfSkAsNXARZR-b-382" value="&lt;font style=&quot;font-size: 12px;&quot;&gt;harga&lt;/font&gt;" style="shape=partialRectangle;html=1;whiteSpace=wrap;connectable=0;strokeColor=inherit;overflow=hidden;fillColor=none;top=0;left=0;bottom=0;right=0;pointerEvents=1;fontSize=16;" parent="UZtejUUfSkAsNXARZR-b-380" vertex="1">
          <mxGeometry x="17" width="180" height="39" as="geometry">
            <mxRectangle width="180" height="39" as="alternateBounds" />
          </mxGeometry>
        </mxCell>
        <mxCell id="UZtejUUfSkAsNXARZR-b-383" value="" style="shape=partialRectangle;html=1;whiteSpace=wrap;connectable=0;strokeColor=inherit;overflow=hidden;fillColor=none;top=0;left=0;bottom=0;right=0;pointerEvents=1;fontSize=16;" parent="UZtejUUfSkAsNXARZR-b-380" vertex="1">
          <mxGeometry x="197" width="15" height="39" as="geometry">
            <mxRectangle width="15" height="39" as="alternateBounds" />
          </mxGeometry>
        </mxCell>
        <mxCell id="UZtejUUfSkAsNXARZR-b-384" value="" style="shape=tableRow;horizontal=0;startSize=0;swimlaneHead=0;swimlaneBody=0;strokeColor=inherit;top=0;left=0;bottom=0;right=0;collapsible=0;dropTarget=0;fillColor=none;points=[[0,0.5],[1,0.5]];portConstraint=eastwest;fontSize=16;" parent="UZtejUUfSkAsNXARZR-b-367" vertex="1">
          <mxGeometry y="154" width="212.24" height="37" as="geometry" />
        </mxCell>
        <mxCell id="UZtejUUfSkAsNXARZR-b-385" value="" style="shape=partialRectangle;html=1;whiteSpace=wrap;connectable=0;strokeColor=inherit;overflow=hidden;fillColor=none;top=0;left=0;bottom=0;right=0;pointerEvents=1;fontSize=16;" parent="UZtejUUfSkAsNXARZR-b-384" vertex="1">
          <mxGeometry width="17" height="37" as="geometry">
            <mxRectangle width="17" height="37" as="alternateBounds" />
          </mxGeometry>
        </mxCell>
        <mxCell id="UZtejUUfSkAsNXARZR-b-386" value="&lt;font style=&quot;font-size: 12px;&quot;&gt;stok&lt;/font&gt;" style="shape=partialRectangle;html=1;whiteSpace=wrap;connectable=0;strokeColor=inherit;overflow=hidden;fillColor=none;top=0;left=0;bottom=0;right=0;pointerEvents=1;fontSize=16;" parent="UZtejUUfSkAsNXARZR-b-384" vertex="1">
          <mxGeometry x="17" width="180" height="37" as="geometry">
            <mxRectangle width="180" height="37" as="alternateBounds" />
          </mxGeometry>
        </mxCell>
        <mxCell id="UZtejUUfSkAsNXARZR-b-387" value="" style="shape=partialRectangle;html=1;whiteSpace=wrap;connectable=0;strokeColor=inherit;overflow=hidden;fillColor=none;top=0;left=0;bottom=0;right=0;pointerEvents=1;fontSize=16;" parent="UZtejUUfSkAsNXARZR-b-384" vertex="1">
          <mxGeometry x="197" width="15" height="37" as="geometry">
            <mxRectangle width="15" height="37" as="alternateBounds" />
          </mxGeometry>
        </mxCell>
        <mxCell id="UZtejUUfSkAsNXARZR-b-388" value="" style="shape=tableRow;horizontal=0;startSize=0;swimlaneHead=0;swimlaneBody=0;strokeColor=inherit;top=0;left=0;bottom=0;right=0;collapsible=0;dropTarget=0;fillColor=none;points=[[0,0.5],[1,0.5]];portConstraint=eastwest;fontSize=16;" parent="UZtejUUfSkAsNXARZR-b-367" vertex="1">
          <mxGeometry y="191" width="212.24" height="39" as="geometry" />
        </mxCell>
        <mxCell id="UZtejUUfSkAsNXARZR-b-389" value="" style="shape=partialRectangle;html=1;whiteSpace=wrap;connectable=0;strokeColor=inherit;overflow=hidden;fillColor=none;top=0;left=0;bottom=0;right=0;pointerEvents=1;fontSize=16;" parent="UZtejUUfSkAsNXARZR-b-388" vertex="1">
          <mxGeometry width="17" height="39" as="geometry">
            <mxRectangle width="17" height="39" as="alternateBounds" />
          </mxGeometry>
        </mxCell>
        <mxCell id="UZtejUUfSkAsNXARZR-b-390" value="&lt;font style=&quot;font-size: 12px;&quot;&gt;jenis&lt;/font&gt;" style="shape=partialRectangle;html=1;whiteSpace=wrap;connectable=0;strokeColor=inherit;overflow=hidden;fillColor=none;top=0;left=0;bottom=0;right=0;pointerEvents=1;fontSize=16;" parent="UZtejUUfSkAsNXARZR-b-388" vertex="1">
          <mxGeometry x="17" width="180" height="39" as="geometry">
            <mxRectangle width="180" height="39" as="alternateBounds" />
          </mxGeometry>
        </mxCell>
        <mxCell id="UZtejUUfSkAsNXARZR-b-391" value="" style="shape=partialRectangle;html=1;whiteSpace=wrap;connectable=0;strokeColor=inherit;overflow=hidden;fillColor=none;top=0;left=0;bottom=0;right=0;pointerEvents=1;fontSize=16;" parent="UZtejUUfSkAsNXARZR-b-388" vertex="1">
          <mxGeometry x="197" width="15" height="39" as="geometry">
            <mxRectangle width="15" height="39" as="alternateBounds" />
          </mxGeometry>
        </mxCell>
        <mxCell id="UZtejUUfSkAsNXARZR-b-393" value="&lt;font color=&quot;#f2f2f2&quot;&gt;Memuat data&lt;/font&gt;" style="rounded=1;fillColor=#23445D;strokeColor=none;strokeWidth=2;fontFamily=Helvetica;html=1;gradientColor=none;" parent="1" vertex="1">
          <mxGeometry x="190" y="970" width="149" height="70" as="geometry" />
        </mxCell>
        <mxCell id="UZtejUUfSkAsNXARZR-b-394" value="&lt;font color=&quot;#f2f2f2&quot;&gt;pistol, smg, shotgun,&amp;nbsp;&lt;/font&gt;&lt;div&gt;&lt;font color=&quot;#f2f2f2&quot;&gt;sniper_rifle dan assault_rifle&lt;/font&gt;&lt;/div&gt;" style="rounded=1;fillColor=#23445D;strokeColor=none;strokeWidth=2;fontFamily=Helvetica;html=1;gradientColor=none;" parent="1" vertex="1">
          <mxGeometry x="50" y="1070" width="177.49" height="70" as="geometry" />
        </mxCell>
        <mxCell id="UZtejUUfSkAsNXARZR-b-395" value="&lt;font color=&quot;#f2f2f2&quot;&gt;equip, throwable,&amp;nbsp;&lt;/font&gt;&lt;div&gt;&lt;font color=&quot;#f2f2f2&quot;&gt;dan ammo&lt;/font&gt;&lt;/div&gt;" style="rounded=1;fillColor=#23445D;strokeColor=none;strokeWidth=2;fontFamily=Helvetica;html=1;gradientColor=none;" parent="1" vertex="1">
          <mxGeometry x="322.13" y="1070" width="149" height="70" as="geometry" />
        </mxCell>
        <mxCell id="UZtejUUfSkAsNXARZR-b-396" style="edgeStyle=orthogonalEdgeStyle;rounded=1;jumpStyle=none;html=1;labelBackgroundColor=#ffffff;startArrow=none;startFill=0;endArrow=classic;jettySize=auto;orthogonalLoop=1;strokeColor=#0C343D;strokeWidth=3;fontFamily=Helvetica;fontSize=11;fontColor=#000000;" parent="1" source="UZtejUUfSkAsNXARZR-b-393" target="UZtejUUfSkAsNXARZR-b-394" edge="1">
          <mxGeometry relative="1" as="geometry">
            <Array as="points">
              <mxPoint x="139" y="1050" />
              <mxPoint x="139" y="1050" />
            </Array>
            <mxPoint x="144" y="920" as="sourcePoint" />
            <mxPoint x="145" y="980" as="targetPoint" />
          </mxGeometry>
        </mxCell>
        <mxCell id="UZtejUUfSkAsNXARZR-b-398" style="edgeStyle=orthogonalEdgeStyle;rounded=1;jumpStyle=none;html=1;labelBackgroundColor=#ffffff;startArrow=none;startFill=0;endArrow=classic;jettySize=auto;orthogonalLoop=1;strokeColor=#0C343D;strokeWidth=3;fontFamily=Helvetica;fontSize=11;fontColor=#000000;" parent="1" source="UZtejUUfSkAsNXARZR-b-393" target="UZtejUUfSkAsNXARZR-b-395" edge="1">
          <mxGeometry relative="1" as="geometry">
            <Array as="points">
              <mxPoint x="400" y="1005" />
            </Array>
            <mxPoint x="219" y="1015" as="sourcePoint" />
            <mxPoint x="388" y="1015" as="targetPoint" />
          </mxGeometry>
        </mxCell>
        <mxCell id="UZtejUUfSkAsNXARZR-b-399" style="edgeStyle=orthogonalEdgeStyle;rounded=1;jumpStyle=none;html=1;labelBackgroundColor=#ffffff;startArrow=none;startFill=0;endArrow=classic;jettySize=auto;orthogonalLoop=1;strokeColor=#0C343D;strokeWidth=3;fontFamily=Helvetica;fontSize=11;fontColor=#000000;" parent="1" source="UZtejUUfSkAsNXARZR-b-394" target="UZtejUUfSkAsNXARZR-b-343" edge="1">
          <mxGeometry relative="1" as="geometry">
            <Array as="points">
              <mxPoint x="138.74" y="1180" />
              <mxPoint x="138.74" y="1180" />
            </Array>
            <mxPoint x="131.74" y="1120" as="sourcePoint" />
            <mxPoint x="406.74" y="1080" as="targetPoint" />
          </mxGeometry>
        </mxCell>
        <mxCell id="UZtejUUfSkAsNXARZR-b-400" style="edgeStyle=orthogonalEdgeStyle;rounded=1;jumpStyle=none;html=1;labelBackgroundColor=#ffffff;startArrow=none;startFill=0;endArrow=classic;jettySize=auto;orthogonalLoop=1;strokeColor=#0C343D;strokeWidth=3;fontFamily=Helvetica;fontSize=11;fontColor=#000000;" parent="1" source="UZtejUUfSkAsNXARZR-b-395" target="UZtejUUfSkAsNXARZR-b-368" edge="1">
          <mxGeometry relative="1" as="geometry">
            <Array as="points">
              <mxPoint x="397" y="1170" />
              <mxPoint x="397" y="1170" />
            </Array>
            <mxPoint x="148.74" y="1150" as="sourcePoint" />
            <mxPoint x="148.74" y="1190" as="targetPoint" />
          </mxGeometry>
        </mxCell>
        <mxCell id="UZtejUUfSkAsNXARZR-b-401" style="edgeStyle=orthogonalEdgeStyle;rounded=1;jumpStyle=none;html=1;labelBackgroundColor=#ffffff;startArrow=none;startFill=0;endArrow=classic;jettySize=auto;orthogonalLoop=1;strokeColor=#0C343D;strokeWidth=3;fontFamily=Helvetica;fontSize=11;fontColor=#000000;" parent="1" source="UZtejUUfSkAsNXARZR-b-363" target="oTxWkRt0Lg_ctlkLbNbN-150" edge="1">
          <mxGeometry relative="1" as="geometry">
            <Array as="points">
              <mxPoint x="153" y="1420" />
              <mxPoint x="153" y="1420" />
            </Array>
            <mxPoint x="148.74" y="1150" as="sourcePoint" />
            <mxPoint x="148.74" y="1190" as="targetPoint" />
          </mxGeometry>
        </mxCell>
        <mxCell id="UZtejUUfSkAsNXARZR-b-402" style="edgeStyle=orthogonalEdgeStyle;rounded=1;jumpStyle=none;html=1;labelBackgroundColor=#ffffff;startArrow=none;startFill=0;endArrow=classic;jettySize=auto;orthogonalLoop=1;strokeColor=#0C343D;strokeWidth=3;fontFamily=Helvetica;fontSize=11;fontColor=#000000;" parent="1" source="UZtejUUfSkAsNXARZR-b-388" target="oTxWkRt0Lg_ctlkLbNbN-151" edge="1">
          <mxGeometry relative="1" as="geometry">
            <Array as="points">
              <mxPoint x="375" y="1420" />
              <mxPoint x="375" y="1420" />
            </Array>
            <mxPoint x="450" y="1400" as="sourcePoint" />
            <mxPoint x="593" y="1440" as="targetPoint" />
          </mxGeometry>
        </mxCell>
        <mxCell id="UZtejUUfSkAsNXARZR-b-403" value="&lt;font color=&quot;#f2f2f2&quot;&gt;full_produk&lt;/font&gt;" style="rounded=1;fillColor=#23445D;strokeColor=none;strokeWidth=2;fontFamily=Helvetica;html=1;gradientColor=none;" parent="1" vertex="1">
          <mxGeometry x="168.25" y="1780" width="149" height="70" as="geometry" />
        </mxCell>
        <mxCell id="UZtejUUfSkAsNXARZR-b-404" style="edgeStyle=orthogonalEdgeStyle;rounded=1;jumpStyle=none;html=1;labelBackgroundColor=#ffffff;startArrow=none;startFill=0;endArrow=classic;jettySize=auto;orthogonalLoop=1;strokeColor=#0C343D;strokeWidth=3;fontFamily=Helvetica;fontSize=11;fontColor=#000000;" parent="1" source="UZtejUUfSkAsNXARZR-b-288" target="UZtejUUfSkAsNXARZR-b-403" edge="1">
          <mxGeometry relative="1" as="geometry">
            <Array as="points">
              <mxPoint x="243" y="1780" />
              <mxPoint x="243" y="1780" />
            </Array>
            <mxPoint x="-48.25999999999999" y="1590" as="sourcePoint" />
            <mxPoint x="264.74" y="1470" as="targetPoint" />
          </mxGeometry>
        </mxCell>
        <mxCell id="UZtejUUfSkAsNXARZR-b-405" value="&lt;font color=&quot;#f2f2f2&quot;&gt;Tampilkan hasil pencarian&lt;/font&gt;&lt;div&gt;&lt;font color=&quot;#f2f2f2&quot;&gt;produk&lt;/font&gt;&lt;/div&gt;" style="rounded=1;fillColor=#23445D;strokeColor=none;strokeWidth=2;fontFamily=Helvetica;html=1;gradientColor=none;" parent="1" vertex="1">
          <mxGeometry x="520" y="1230" width="149" height="70" as="geometry" />
        </mxCell>
        <mxCell id="UZtejUUfSkAsNXARZR-b-406" style="edgeStyle=orthogonalEdgeStyle;rounded=1;jumpStyle=none;html=1;labelBackgroundColor=#ffffff;startArrow=none;startFill=0;endArrow=classic;jettySize=auto;orthogonalLoop=1;strokeColor=#0C343D;strokeWidth=3;fontFamily=Helvetica;fontSize=11;fontColor=#000000;" parent="1" source="UZtejUUfSkAsNXARZR-b-188" target="UZtejUUfSkAsNXARZR-b-405" edge="1">
          <mxGeometry relative="1" as="geometry">
            <Array as="points">
              <mxPoint x="595" y="1210" />
              <mxPoint x="595" y="1210" />
            </Array>
            <mxPoint x="1084.75" y="930" as="sourcePoint" />
            <mxPoint x="1084.5" y="1034.5" as="targetPoint" />
          </mxGeometry>
        </mxCell>
        <mxCell id="oTxWkRt0Lg_ctlkLbNbN-93" value="&lt;font color=&quot;#f2f2f2&quot;&gt;Masukkan stok yang&lt;/font&gt;&lt;div&gt;&lt;font color=&quot;#f2f2f2&quot;&gt;ingin dibeli&lt;/font&gt;&lt;/div&gt;" style="rounded=1;fillColor=#23445D;strokeColor=none;strokeWidth=2;fontFamily=Helvetica;html=1;gradientColor=none;" parent="1" vertex="1">
          <mxGeometry x="878.87" y="1420" width="124.75" height="62" as="geometry" />
        </mxCell>
        <mxCell id="oTxWkRt0Lg_ctlkLbNbN-94" value="&lt;font color=&quot;#f2f2f2&quot;&gt;Tampilkan list jenis produk&lt;/font&gt;&lt;div&gt;&lt;font color=&quot;#f2f2f2&quot;&gt;yang dipilih&lt;/font&gt;&lt;/div&gt;" style="rounded=1;fillColor=#23445D;strokeColor=none;strokeWidth=2;fontFamily=Helvetica;html=1;gradientColor=none;" parent="1" vertex="1">
          <mxGeometry x="866.75" y="1310" width="149" height="70" as="geometry" />
        </mxCell>
        <mxCell id="oTxWkRt0Lg_ctlkLbNbN-95" style="edgeStyle=orthogonalEdgeStyle;rounded=1;jumpStyle=none;html=1;labelBackgroundColor=#ffffff;startArrow=none;startFill=0;endArrow=classic;jettySize=auto;orthogonalLoop=1;strokeColor=#0C343D;strokeWidth=3;fontFamily=Helvetica;fontSize=11;fontColor=#000000;" parent="1" source="oTxWkRt0Lg_ctlkLbNbN-94" target="oTxWkRt0Lg_ctlkLbNbN-93" edge="1">
          <mxGeometry relative="1" as="geometry">
            <Array as="points">
              <mxPoint x="954" y="1320" />
              <mxPoint x="954" y="1320" />
            </Array>
            <mxPoint x="605" y="1206" as="sourcePoint" />
            <mxPoint x="605" y="1240" as="targetPoint" />
          </mxGeometry>
        </mxCell>
        <mxCell id="oTxWkRt0Lg_ctlkLbNbN-96" value="&lt;font color=&quot;#f2f2f2&quot;&gt;Input ke Queue&lt;/font&gt;&lt;div&gt;&lt;font color=&quot;#f2f2f2&quot;&gt;Keranjang Belanja&lt;/font&gt;&lt;/div&gt;" style="rounded=1;fillColor=#23445D;strokeColor=none;strokeWidth=2;fontFamily=Helvetica;html=1;gradientColor=none;" parent="1" vertex="1">
          <mxGeometry x="861.06" y="1520" width="163.38" height="70" as="geometry" />
        </mxCell>
        <mxCell id="oTxWkRt0Lg_ctlkLbNbN-97" style="edgeStyle=orthogonalEdgeStyle;rounded=1;jumpStyle=none;html=1;labelBackgroundColor=#ffffff;startArrow=none;startFill=0;endArrow=classic;jettySize=auto;orthogonalLoop=1;strokeColor=#0C343D;strokeWidth=3;fontFamily=Helvetica;fontSize=11;fontColor=#000000;" parent="1" source="oTxWkRt0Lg_ctlkLbNbN-93" target="oTxWkRt0Lg_ctlkLbNbN-96" edge="1">
          <mxGeometry relative="1" as="geometry">
            <Array as="points">
              <mxPoint x="943" y="1490" />
              <mxPoint x="943" y="1490" />
            </Array>
            <mxPoint x="951" y="1390" as="sourcePoint" />
            <mxPoint x="951" y="1430" as="targetPoint" />
          </mxGeometry>
        </mxCell>
        <mxCell id="oTxWkRt0Lg_ctlkLbNbN-98" value="&lt;font color=&quot;#f2f2f2&quot;&gt;Tampilkan baris dari isi&amp;nbsp;&lt;/font&gt;&lt;div&gt;&lt;font color=&quot;#f2f2f2&quot;&gt;Keranjang Belanja&lt;/font&gt;&lt;/div&gt;" style="rounded=1;fillColor=#23445D;strokeColor=none;strokeWidth=2;fontFamily=Helvetica;html=1;gradientColor=none;" parent="1" vertex="1">
          <mxGeometry x="1234.25" y="1380" width="157" height="60" as="geometry" />
        </mxCell>
        <mxCell id="oTxWkRt0Lg_ctlkLbNbN-99" value="Apakah Keranjang&amp;nbsp;&lt;div&gt;Belanja&amp;nbsp;&lt;span style=&quot;background-color: initial;&quot;&gt;berisi?&lt;/span&gt;&lt;/div&gt;" style="rhombus;whiteSpace=wrap;html=1;fillColor=#0050ef;fontColor=#ffffff;strokeColor=#001DBC;" parent="1" vertex="1">
          <mxGeometry x="1239.5" y="1187.75" width="146.5" height="154.5" as="geometry" />
        </mxCell>
        <mxCell id="oTxWkRt0Lg_ctlkLbNbN-101" style="edgeStyle=orthogonalEdgeStyle;rounded=1;jumpStyle=none;html=1;labelBackgroundColor=#ffffff;startArrow=none;startFill=0;endArrow=classic;jettySize=auto;orthogonalLoop=1;strokeColor=#3700CC;strokeWidth=3;fontFamily=Helvetica;fontSize=11;fontColor=#000000;fillColor=#6a00ff;" parent="1" source="oTxWkRt0Lg_ctlkLbNbN-99" target="UZtejUUfSkAsNXARZR-b-146" edge="1">
          <mxGeometry relative="1" as="geometry">
            <Array as="points">
              <mxPoint x="1430" y="1265" />
              <mxPoint x="1430" y="1050" />
            </Array>
            <mxPoint x="1006.25" y="1167" as="sourcePoint" />
            <mxPoint x="1752.25" y="1203" as="targetPoint" />
          </mxGeometry>
        </mxCell>
        <mxCell id="oTxWkRt0Lg_ctlkLbNbN-102" style="edgeStyle=orthogonalEdgeStyle;rounded=1;jumpStyle=none;html=1;labelBackgroundColor=#ffffff;startArrow=none;startFill=0;endArrow=classic;jettySize=auto;orthogonalLoop=1;strokeColor=#0C343D;strokeWidth=3;fontFamily=Helvetica;fontSize=11;fontColor=#000000;" parent="1" source="UZtejUUfSkAsNXARZR-b-150" target="oTxWkRt0Lg_ctlkLbNbN-99" edge="1">
          <mxGeometry relative="1" as="geometry">
            <Array as="points" />
            <mxPoint x="587.25" y="1090" as="sourcePoint" />
            <mxPoint x="1333.25" y="1126" as="targetPoint" />
          </mxGeometry>
        </mxCell>
        <mxCell id="oTxWkRt0Lg_ctlkLbNbN-103" style="edgeStyle=orthogonalEdgeStyle;rounded=1;jumpStyle=none;html=1;labelBackgroundColor=#ffffff;startArrow=none;startFill=0;endArrow=classic;jettySize=auto;orthogonalLoop=1;strokeColor=#2D7600;strokeWidth=3;fontFamily=Helvetica;fontSize=11;fontColor=#000000;fillColor=#60a917;" parent="1" source="oTxWkRt0Lg_ctlkLbNbN-99" target="oTxWkRt0Lg_ctlkLbNbN-98" edge="1">
          <mxGeometry relative="1" as="geometry">
            <Array as="points" />
            <mxPoint x="1323.25" y="1166" as="sourcePoint" />
            <mxPoint x="1323.25" y="1198" as="targetPoint" />
          </mxGeometry>
        </mxCell>
        <mxCell id="oTxWkRt0Lg_ctlkLbNbN-104" value="&lt;font color=&quot;#f2f2f2&quot;&gt;Konfirmasi pembelian&lt;/font&gt;" style="rounded=1;fillColor=#23445D;strokeColor=none;strokeWidth=2;fontFamily=Helvetica;html=1;gradientColor=none;" parent="1" vertex="1">
          <mxGeometry x="1119.25" y="1482" width="157" height="60" as="geometry" />
        </mxCell>
        <mxCell id="oTxWkRt0Lg_ctlkLbNbN-105" value="&lt;font color=&quot;#f2f2f2&quot;&gt;Hapus baris sebuah produk&lt;/font&gt;&lt;div&gt;&lt;font color=&quot;#f2f2f2&quot;&gt;berdasarkan baris&lt;/font&gt;&lt;/div&gt;" style="rounded=1;fillColor=#23445D;strokeColor=none;strokeWidth=2;fontFamily=Helvetica;html=1;gradientColor=none;" parent="1" vertex="1">
          <mxGeometry x="1349.25" y="1480" width="157" height="60" as="geometry" />
        </mxCell>
        <mxCell id="oTxWkRt0Lg_ctlkLbNbN-107" style="edgeStyle=orthogonalEdgeStyle;rounded=1;jumpStyle=none;html=1;labelBackgroundColor=#ffffff;startArrow=none;startFill=0;endArrow=classic;jettySize=auto;orthogonalLoop=1;strokeColor=#0C343D;strokeWidth=3;fontFamily=Helvetica;fontSize=11;fontColor=#000000;" parent="1" source="oTxWkRt0Lg_ctlkLbNbN-98" target="oTxWkRt0Lg_ctlkLbNbN-104" edge="1">
          <mxGeometry relative="1" as="geometry">
            <Array as="points">
              <mxPoint x="1198.25" y="1410" />
            </Array>
            <mxPoint x="1323.25" y="1352" as="sourcePoint" />
            <mxPoint x="1323.25" y="1390" as="targetPoint" />
          </mxGeometry>
        </mxCell>
        <mxCell id="oTxWkRt0Lg_ctlkLbNbN-108" style="edgeStyle=orthogonalEdgeStyle;rounded=1;jumpStyle=none;html=1;labelBackgroundColor=#ffffff;startArrow=none;startFill=0;endArrow=classic;jettySize=auto;orthogonalLoop=1;strokeColor=#0C343D;strokeWidth=3;fontFamily=Helvetica;fontSize=11;fontColor=#000000;" parent="1" source="oTxWkRt0Lg_ctlkLbNbN-98" target="oTxWkRt0Lg_ctlkLbNbN-105" edge="1">
          <mxGeometry relative="1" as="geometry">
            <Array as="points">
              <mxPoint x="1430" y="1410" />
            </Array>
            <mxPoint x="1244" y="1420" as="sourcePoint" />
            <mxPoint x="1208" y="1492" as="targetPoint" />
          </mxGeometry>
        </mxCell>
        <mxCell id="oTxWkRt0Lg_ctlkLbNbN-109" value="Apakah produk ingin&lt;div&gt;dihapus ada?&amp;nbsp;&lt;/div&gt;" style="rhombus;whiteSpace=wrap;html=1;fillColor=#0050ef;fontColor=#ffffff;strokeColor=#001DBC;" parent="1" vertex="1">
          <mxGeometry x="1354.5" y="1570" width="146.5" height="154.5" as="geometry" />
        </mxCell>
        <mxCell id="oTxWkRt0Lg_ctlkLbNbN-111" style="edgeStyle=orthogonalEdgeStyle;rounded=1;jumpStyle=none;html=1;labelBackgroundColor=#ffffff;startArrow=none;startFill=0;endArrow=classic;jettySize=auto;orthogonalLoop=1;strokeColor=#3700CC;strokeWidth=3;fontFamily=Helvetica;fontSize=11;fontColor=#000000;fillColor=#6a00ff;" parent="1" source="oTxWkRt0Lg_ctlkLbNbN-109" target="oTxWkRt0Lg_ctlkLbNbN-98" edge="1">
          <mxGeometry relative="1" as="geometry">
            <Array as="points">
              <mxPoint x="1540" y="1647" />
              <mxPoint x="1540" y="1410" />
            </Array>
            <mxPoint x="1401" y="1420" as="sourcePoint" />
            <mxPoint x="1440" y="1490" as="targetPoint" />
          </mxGeometry>
        </mxCell>
        <mxCell id="oTxWkRt0Lg_ctlkLbNbN-112" style="edgeStyle=orthogonalEdgeStyle;rounded=1;jumpStyle=none;html=1;labelBackgroundColor=#ffffff;startArrow=none;startFill=0;endArrow=classic;jettySize=auto;orthogonalLoop=1;strokeColor=#0C343D;strokeWidth=3;fontFamily=Helvetica;fontSize=11;fontColor=#000000;" parent="1" source="oTxWkRt0Lg_ctlkLbNbN-105" target="oTxWkRt0Lg_ctlkLbNbN-109" edge="1">
          <mxGeometry relative="1" as="geometry">
            <Array as="points">
              <mxPoint x="1428" y="1540" />
              <mxPoint x="1428" y="1540" />
            </Array>
            <mxPoint x="1411" y="1430" as="sourcePoint" />
            <mxPoint x="1450" y="1500" as="targetPoint" />
          </mxGeometry>
        </mxCell>
        <mxCell id="oTxWkRt0Lg_ctlkLbNbN-113" value="&lt;font color=&quot;#f2f2f2&quot;&gt;Hapus&lt;/font&gt;" style="rounded=1;fillColor=#23445D;strokeColor=none;strokeWidth=2;fontFamily=Helvetica;html=1;gradientColor=none;" parent="1" vertex="1">
          <mxGeometry x="1372.37" y="1760" width="110.75" height="50" as="geometry" />
        </mxCell>
        <mxCell id="oTxWkRt0Lg_ctlkLbNbN-114" style="edgeStyle=orthogonalEdgeStyle;rounded=1;jumpStyle=none;html=1;labelBackgroundColor=#ffffff;startArrow=none;startFill=0;endArrow=classic;jettySize=auto;orthogonalLoop=1;strokeColor=#005700;strokeWidth=3;fontFamily=Helvetica;fontSize=11;fontColor=#000000;fillColor=#008a00;" parent="1" source="oTxWkRt0Lg_ctlkLbNbN-109" target="oTxWkRt0Lg_ctlkLbNbN-113" edge="1">
          <mxGeometry relative="1" as="geometry">
            <Array as="points">
              <mxPoint x="1428" y="1730" />
              <mxPoint x="1428" y="1730" />
            </Array>
            <mxPoint x="1401" y="1420" as="sourcePoint" />
            <mxPoint x="1440" y="1490" as="targetPoint" />
          </mxGeometry>
        </mxCell>
        <mxCell id="oTxWkRt0Lg_ctlkLbNbN-116" value="&lt;font color=&quot;#f2f2f2&quot;&gt;Kembali ke&lt;/font&gt;&lt;div&gt;&lt;font color=&quot;#f2f2f2&quot;&gt;Keranjang Belanja&lt;/font&gt;&lt;/div&gt;" style="rounded=1;fillColor=#23445D;strokeColor=none;strokeWidth=2;fontFamily=Helvetica;html=1;gradientColor=none;" parent="1" vertex="1">
          <mxGeometry x="1358.9299999999998" y="1850" width="137.63" height="60" as="geometry" />
        </mxCell>
        <mxCell id="oTxWkRt0Lg_ctlkLbNbN-117" style="edgeStyle=orthogonalEdgeStyle;rounded=1;jumpStyle=none;html=1;labelBackgroundColor=#ffffff;startArrow=none;startFill=0;endArrow=classic;jettySize=auto;orthogonalLoop=1;strokeColor=#0C343D;strokeWidth=3;fontFamily=Helvetica;fontSize=11;fontColor=#000000;" parent="1" source="oTxWkRt0Lg_ctlkLbNbN-113" target="oTxWkRt0Lg_ctlkLbNbN-116" edge="1">
          <mxGeometry relative="1" as="geometry">
            <Array as="points" />
            <mxPoint x="1438" y="1734" as="sourcePoint" />
            <mxPoint x="1438" y="1770" as="targetPoint" />
          </mxGeometry>
        </mxCell>
        <mxCell id="oTxWkRt0Lg_ctlkLbNbN-118" style="edgeStyle=orthogonalEdgeStyle;rounded=1;jumpStyle=none;html=1;labelBackgroundColor=#ffffff;startArrow=none;startFill=0;endArrow=classic;jettySize=auto;orthogonalLoop=1;strokeColor=#0C343D;strokeWidth=3;fontFamily=Helvetica;fontSize=11;fontColor=#000000;" parent="1" source="UZtejUUfSkAsNXARZR-b-403" target="92" edge="1">
          <mxGeometry relative="1" as="geometry">
            <Array as="points">
              <mxPoint x="500" y="1815" />
              <mxPoint x="500" y="1000" />
            </Array>
            <mxPoint x="510" y="1695" as="sourcePoint" />
            <mxPoint x="560" y="1500" as="targetPoint" />
          </mxGeometry>
        </mxCell>
        <mxCell id="oTxWkRt0Lg_ctlkLbNbN-119" value="&lt;font color=&quot;#f2f2f2&quot;&gt;Membuat log produk yang&lt;/font&gt;&lt;div&gt;&lt;font color=&quot;#f2f2f2&quot;&gt;berhasil terkonfirmasi&lt;/font&gt;&lt;/div&gt;&lt;div&gt;&lt;font color=&quot;#f2f2f2&quot;&gt;di data_transaksi.csv&lt;/font&gt;&lt;/div&gt;" style="rounded=1;fillColor=#23445D;strokeColor=none;strokeWidth=2;fontFamily=Helvetica;html=1;gradientColor=none;" parent="1" vertex="1">
          <mxGeometry x="1094.62" y="1594" width="206.25" height="86" as="geometry" />
        </mxCell>
        <mxCell id="oTxWkRt0Lg_ctlkLbNbN-120" style="edgeStyle=orthogonalEdgeStyle;rounded=1;jumpStyle=none;html=1;labelBackgroundColor=#ffffff;startArrow=none;startFill=0;endArrow=classic;jettySize=auto;orthogonalLoop=1;strokeColor=#0C343D;strokeWidth=3;fontFamily=Helvetica;fontSize=11;fontColor=#000000;" parent="1" source="oTxWkRt0Lg_ctlkLbNbN-104" target="oTxWkRt0Lg_ctlkLbNbN-119" edge="1">
          <mxGeometry relative="1" as="geometry">
            <Array as="points">
              <mxPoint x="1200" y="1580" />
              <mxPoint x="1200" y="1580" />
            </Array>
            <mxPoint x="1244" y="1420" as="sourcePoint" />
            <mxPoint x="1208" y="1492" as="targetPoint" />
          </mxGeometry>
        </mxCell>
        <mxCell id="oTxWkRt0Lg_ctlkLbNbN-121" value="&lt;font color=&quot;#f2f2f2&quot;&gt;Membuat nota transaksi&lt;/font&gt;&lt;div&gt;&lt;font color=&quot;#f2f2f2&quot;&gt;dengan kode tanggal&lt;/font&gt;&lt;/div&gt;" style="rounded=1;fillColor=#23445D;strokeColor=none;strokeWidth=2;fontFamily=Helvetica;html=1;gradientColor=none;" parent="1" vertex="1">
          <mxGeometry x="1115.05" y="1724.5" width="165.38" height="66" as="geometry" />
        </mxCell>
        <mxCell id="oTxWkRt0Lg_ctlkLbNbN-122" style="edgeStyle=orthogonalEdgeStyle;rounded=1;jumpStyle=none;html=1;labelBackgroundColor=#ffffff;startArrow=none;startFill=0;endArrow=classic;jettySize=auto;orthogonalLoop=1;strokeColor=#0C343D;strokeWidth=3;fontFamily=Helvetica;fontSize=11;fontColor=#000000;" parent="1" source="oTxWkRt0Lg_ctlkLbNbN-119" target="oTxWkRt0Lg_ctlkLbNbN-121" edge="1">
          <mxGeometry relative="1" as="geometry">
            <Array as="points" />
            <mxPoint x="1210" y="1552" as="sourcePoint" />
            <mxPoint x="1210" y="1604" as="targetPoint" />
          </mxGeometry>
        </mxCell>
        <mxCell id="oTxWkRt0Lg_ctlkLbNbN-123" value="&lt;font color=&quot;#f2f2f2&quot;&gt;Kembali ke&lt;/font&gt;&lt;div&gt;&lt;font color=&quot;#f2f2f2&quot;&gt;Menu Utama&lt;/font&gt;&lt;/div&gt;" style="rounded=1;fillColor=#23445D;strokeColor=none;strokeWidth=2;fontFamily=Helvetica;html=1;gradientColor=none;" parent="1" vertex="1">
          <mxGeometry x="1128.9399999999998" y="1830" width="137.63" height="60" as="geometry" />
        </mxCell>
        <mxCell id="oTxWkRt0Lg_ctlkLbNbN-124" style="edgeStyle=orthogonalEdgeStyle;rounded=1;jumpStyle=none;html=1;labelBackgroundColor=#ffffff;startArrow=none;startFill=0;endArrow=classic;jettySize=auto;orthogonalLoop=1;strokeColor=#0C343D;strokeWidth=3;fontFamily=Helvetica;fontSize=11;fontColor=#000000;" parent="1" source="oTxWkRt0Lg_ctlkLbNbN-121" target="oTxWkRt0Lg_ctlkLbNbN-123" edge="1">
          <mxGeometry relative="1" as="geometry">
            <Array as="points" />
            <mxPoint x="1438" y="1820" as="sourcePoint" />
            <mxPoint x="1438" y="1860" as="targetPoint" />
          </mxGeometry>
        </mxCell>
        <mxCell id="oTxWkRt0Lg_ctlkLbNbN-125" value="&lt;font color=&quot;#f2f2f2&quot;&gt;Konfirmasi keamanan&lt;/font&gt;" style="rounded=1;fillColor=#23445D;strokeColor=none;strokeWidth=2;fontFamily=Helvetica;html=1;gradientColor=none;" parent="1" vertex="1">
          <mxGeometry x="1668.5" y="1191" width="150" height="50" as="geometry" />
        </mxCell>
        <mxCell id="oTxWkRt0Lg_ctlkLbNbN-126" style="edgeStyle=orthogonalEdgeStyle;rounded=1;jumpStyle=none;html=1;labelBackgroundColor=#ffffff;startArrow=none;startFill=0;endArrow=classic;jettySize=auto;orthogonalLoop=1;strokeColor=#0C343D;strokeWidth=3;fontFamily=Helvetica;fontSize=11;fontColor=#000000;" parent="1" source="UZtejUUfSkAsNXARZR-b-151" target="oTxWkRt0Lg_ctlkLbNbN-125" edge="1">
          <mxGeometry relative="1" as="geometry">
            <Array as="points" />
            <mxPoint x="1323" y="1166" as="sourcePoint" />
            <mxPoint x="1323" y="1198" as="targetPoint" />
          </mxGeometry>
        </mxCell>
        <mxCell id="oTxWkRt0Lg_ctlkLbNbN-128" value="Terkonfirmasi?" style="rhombus;whiteSpace=wrap;html=1;fillColor=#0050ef;fontColor=#ffffff;strokeColor=#001DBC;" parent="1" vertex="1">
          <mxGeometry x="1670.25" y="1265.5" width="146.5" height="154.5" as="geometry" />
        </mxCell>
        <mxCell id="oTxWkRt0Lg_ctlkLbNbN-129" style="edgeStyle=orthogonalEdgeStyle;rounded=1;jumpStyle=none;html=1;labelBackgroundColor=#ffffff;startArrow=none;startFill=0;endArrow=classic;jettySize=auto;orthogonalLoop=1;strokeColor=#3700CC;strokeWidth=3;fontFamily=Helvetica;fontSize=11;fontColor=#000000;fillColor=#6a00ff;" parent="1" source="oTxWkRt0Lg_ctlkLbNbN-128" target="UZtejUUfSkAsNXARZR-b-146" edge="1">
          <mxGeometry relative="1" as="geometry">
            <Array as="points">
              <mxPoint x="1880" y="1340" />
              <mxPoint x="1880" y="1050" />
            </Array>
            <mxPoint x="1396" y="1275" as="sourcePoint" />
            <mxPoint x="668" y="1060" as="targetPoint" />
          </mxGeometry>
        </mxCell>
        <mxCell id="oTxWkRt0Lg_ctlkLbNbN-130" style="edgeStyle=orthogonalEdgeStyle;rounded=1;jumpStyle=none;html=1;labelBackgroundColor=#ffffff;startArrow=none;startFill=0;endArrow=classic;jettySize=auto;orthogonalLoop=1;strokeColor=#0C343D;strokeWidth=3;fontFamily=Helvetica;fontSize=11;fontColor=#000000;" parent="1" source="oTxWkRt0Lg_ctlkLbNbN-125" target="oTxWkRt0Lg_ctlkLbNbN-128" edge="1">
          <mxGeometry relative="1" as="geometry">
            <Array as="points" />
            <mxPoint x="1753" y="1166" as="sourcePoint" />
            <mxPoint x="1753" y="1201" as="targetPoint" />
          </mxGeometry>
        </mxCell>
        <mxCell id="oTxWkRt0Lg_ctlkLbNbN-131" value="Tidak" style="text;html=1;align=center;verticalAlign=middle;resizable=0;points=[];autosize=1;strokeColor=none;fillColor=none;" parent="1" vertex="1">
          <mxGeometry x="1365" y="1238" width="50" height="30" as="geometry" />
        </mxCell>
        <mxCell id="oTxWkRt0Lg_ctlkLbNbN-132" value="Iya" style="text;html=1;align=center;verticalAlign=middle;resizable=0;points=[];autosize=1;strokeColor=none;fillColor=none;" parent="1" vertex="1">
          <mxGeometry x="1309.25" y="1327.75" width="40" height="30" as="geometry" />
        </mxCell>
        <mxCell id="oTxWkRt0Lg_ctlkLbNbN-133" value="Tidak" style="text;html=1;align=center;verticalAlign=middle;resizable=0;points=[];autosize=1;strokeColor=none;fillColor=none;" parent="1" vertex="1">
          <mxGeometry x="1483.12" y="1622" width="50" height="30" as="geometry" />
        </mxCell>
        <mxCell id="oTxWkRt0Lg_ctlkLbNbN-134" value="Iya" style="text;html=1;align=center;verticalAlign=middle;resizable=0;points=[];autosize=1;strokeColor=none;fillColor=none;" parent="1" vertex="1">
          <mxGeometry x="1420" y="1718" width="40" height="30" as="geometry" />
        </mxCell>
        <mxCell id="oTxWkRt0Lg_ctlkLbNbN-135" value="Tidak" style="text;html=1;align=center;verticalAlign=middle;resizable=0;points=[];autosize=1;strokeColor=none;fillColor=none;" parent="1" vertex="1">
          <mxGeometry x="1795" y="1308" width="50" height="30" as="geometry" />
        </mxCell>
        <mxCell id="oTxWkRt0Lg_ctlkLbNbN-136" value="Iya" style="text;html=1;align=center;verticalAlign=middle;resizable=0;points=[];autosize=1;strokeColor=none;fillColor=none;" parent="1" vertex="1">
          <mxGeometry x="1740" y="1408" width="40" height="30" as="geometry" />
        </mxCell>
        <mxCell id="oTxWkRt0Lg_ctlkLbNbN-137" value="&lt;font color=&quot;#f2f2f2&quot;&gt;Menu Utama&lt;br&gt;Administrator&lt;/font&gt;" style="rounded=1;fillColor=#23445D;strokeColor=none;strokeWidth=2;fontFamily=Helvetica;html=1;gradientColor=none;" parent="1" vertex="1">
          <mxGeometry x="1680.0037414965986" y="1460" width="127" height="50" as="geometry" />
        </mxCell>
        <mxCell id="oTxWkRt0Lg_ctlkLbNbN-138" style="edgeStyle=orthogonalEdgeStyle;rounded=1;jumpStyle=none;html=1;labelBackgroundColor=#ffffff;startArrow=none;startFill=0;endArrow=classic;jettySize=auto;orthogonalLoop=1;strokeColor=#005700;strokeWidth=3;fontFamily=Helvetica;fontSize=11;fontColor=#000000;fillColor=#008a00;" parent="1" source="oTxWkRt0Lg_ctlkLbNbN-128" target="oTxWkRt0Lg_ctlkLbNbN-137" edge="1">
          <mxGeometry relative="1" as="geometry">
            <Array as="points" />
            <mxPoint x="1753" y="1251" as="sourcePoint" />
            <mxPoint x="1754" y="1276" as="targetPoint" />
          </mxGeometry>
        </mxCell>
        <mxCell id="oTxWkRt0Lg_ctlkLbNbN-139" value="&lt;font color=&quot;#f2f2f2&quot;&gt;Tambah Produk&lt;/font&gt;" style="rounded=1;fillColor=#23445D;strokeColor=none;strokeWidth=2;fontFamily=Helvetica;html=1;gradientColor=none;" parent="1" vertex="1">
          <mxGeometry x="1590.0037414965986" y="1572" width="127" height="50" as="geometry" />
        </mxCell>
        <mxCell id="oTxWkRt0Lg_ctlkLbNbN-140" value="&lt;font color=&quot;#f2f2f2&quot;&gt;Hapus Produk&lt;/font&gt;" style="rounded=1;fillColor=#23445D;strokeColor=none;strokeWidth=2;fontFamily=Helvetica;html=1;gradientColor=none;" parent="1" vertex="1">
          <mxGeometry x="1776.0037414965986" y="1570" width="127" height="50" as="geometry" />
        </mxCell>
        <mxCell id="oTxWkRt0Lg_ctlkLbNbN-141" value="&lt;font color=&quot;#f2f2f2&quot;&gt;Atur Stok&lt;/font&gt;" style="rounded=1;fillColor=#23445D;strokeColor=none;strokeWidth=2;fontFamily=Helvetica;html=1;gradientColor=none;" parent="1" vertex="1">
          <mxGeometry x="1960.0037414965986" y="1570" width="127" height="50" as="geometry" />
        </mxCell>
        <mxCell id="oTxWkRt0Lg_ctlkLbNbN-143" style="edgeStyle=orthogonalEdgeStyle;rounded=1;jumpStyle=none;html=1;labelBackgroundColor=#ffffff;startArrow=none;startFill=0;endArrow=classic;jettySize=auto;orthogonalLoop=1;strokeColor=#0C343D;strokeWidth=3;fontFamily=Helvetica;fontSize=11;fontColor=#000000;" parent="1" source="oTxWkRt0Lg_ctlkLbNbN-137" target="oTxWkRt0Lg_ctlkLbNbN-139" edge="1">
          <mxGeometry relative="1" as="geometry">
            <Array as="points">
              <mxPoint x="1744" y="1542" />
              <mxPoint x="1654" y="1542" />
            </Array>
            <mxPoint x="1690" y="1542" as="sourcePoint" />
            <mxPoint x="1729" y="1612" as="targetPoint" />
          </mxGeometry>
        </mxCell>
        <mxCell id="oTxWkRt0Lg_ctlkLbNbN-144" style="edgeStyle=orthogonalEdgeStyle;rounded=1;jumpStyle=none;html=1;labelBackgroundColor=#ffffff;startArrow=none;startFill=0;endArrow=classic;jettySize=auto;orthogonalLoop=1;strokeColor=#0C343D;strokeWidth=3;fontFamily=Helvetica;fontSize=11;fontColor=#000000;" parent="1" source="oTxWkRt0Lg_ctlkLbNbN-137" target="oTxWkRt0Lg_ctlkLbNbN-140" edge="1">
          <mxGeometry relative="1" as="geometry">
            <Array as="points">
              <mxPoint x="1744" y="1540" />
              <mxPoint x="1840" y="1540" />
            </Array>
            <mxPoint x="1754" y="1520" as="sourcePoint" />
            <mxPoint x="1664" y="1582" as="targetPoint" />
          </mxGeometry>
        </mxCell>
        <mxCell id="oTxWkRt0Lg_ctlkLbNbN-145" style="edgeStyle=orthogonalEdgeStyle;rounded=1;jumpStyle=none;html=1;labelBackgroundColor=#ffffff;startArrow=none;startFill=0;endArrow=classic;jettySize=auto;orthogonalLoop=1;strokeColor=#0C343D;strokeWidth=3;fontFamily=Helvetica;fontSize=11;fontColor=#000000;" parent="1" source="oTxWkRt0Lg_ctlkLbNbN-137" target="oTxWkRt0Lg_ctlkLbNbN-141" edge="1">
          <mxGeometry relative="1" as="geometry">
            <Array as="points">
              <mxPoint x="1744" y="1540" />
              <mxPoint x="2026" y="1540" />
            </Array>
            <mxPoint x="1930" y="1510" as="sourcePoint" />
            <mxPoint x="2026" y="1570" as="targetPoint" />
          </mxGeometry>
        </mxCell>
        <mxCell id="oTxWkRt0Lg_ctlkLbNbN-146" value="&lt;font color=&quot;#f2f2f2&quot;&gt;Perhitungan Transaksi&lt;/font&gt;" style="rounded=1;fillColor=#23445D;strokeColor=none;strokeWidth=2;fontFamily=Helvetica;html=1;gradientColor=none;" parent="1" vertex="1">
          <mxGeometry x="2181.5037414965986" y="1572" width="127" height="50" as="geometry" />
        </mxCell>
        <mxCell id="oTxWkRt0Lg_ctlkLbNbN-147" style="edgeStyle=orthogonalEdgeStyle;rounded=1;jumpStyle=none;html=1;labelBackgroundColor=#ffffff;startArrow=none;startFill=0;endArrow=classic;jettySize=auto;orthogonalLoop=1;strokeColor=#0C343D;strokeWidth=3;fontFamily=Helvetica;fontSize=11;fontColor=#000000;" parent="1" source="oTxWkRt0Lg_ctlkLbNbN-137" target="oTxWkRt0Lg_ctlkLbNbN-146" edge="1">
          <mxGeometry relative="1" as="geometry">
            <Array as="points">
              <mxPoint x="1743" y="1540" />
              <mxPoint x="2245" y="1540" />
            </Array>
            <mxPoint x="1754" y="1520" as="sourcePoint" />
            <mxPoint x="2036" y="1580" as="targetPoint" />
          </mxGeometry>
        </mxCell>
        <mxCell id="oTxWkRt0Lg_ctlkLbNbN-148" value="&lt;font color=&quot;#f2f2f2&quot;&gt;Pemilihan jenis produk&lt;/font&gt;" style="rounded=1;fillColor=#23445D;strokeColor=none;strokeWidth=2;fontFamily=Helvetica;html=1;gradientColor=none;" parent="1" vertex="1">
          <mxGeometry x="1590.0037414965986" y="1664" width="127" height="50" as="geometry" />
        </mxCell>
        <mxCell id="oTxWkRt0Lg_ctlkLbNbN-149" style="edgeStyle=orthogonalEdgeStyle;rounded=1;jumpStyle=none;html=1;labelBackgroundColor=#ffffff;startArrow=none;startFill=0;endArrow=classic;jettySize=auto;orthogonalLoop=1;strokeColor=#0C343D;strokeWidth=3;fontFamily=Helvetica;fontSize=11;fontColor=#000000;" parent="1" source="oTxWkRt0Lg_ctlkLbNbN-139" target="oTxWkRt0Lg_ctlkLbNbN-148" edge="1">
          <mxGeometry relative="1" as="geometry">
            <Array as="points">
              <mxPoint x="1654" y="1640" />
              <mxPoint x="1654" y="1640" />
            </Array>
            <mxPoint x="1754" y="1520" as="sourcePoint" />
            <mxPoint x="1664" y="1582" as="targetPoint" />
          </mxGeometry>
        </mxCell>
        <mxCell id="oTxWkRt0Lg_ctlkLbNbN-150" value="&lt;font color=&quot;#f2f2f2&quot;&gt;produk&lt;/font&gt;" style="rounded=1;fillColor=#23445D;strokeColor=none;strokeWidth=2;fontFamily=Helvetica;html=1;gradientColor=none;" parent="1" vertex="1">
          <mxGeometry x="78.49" y="1450" width="131.51" height="60" as="geometry" />
        </mxCell>
        <mxCell id="oTxWkRt0Lg_ctlkLbNbN-151" value="&lt;font color=&quot;#f2f2f2&quot;&gt;equipment_other&lt;/font&gt;" style="rounded=1;fillColor=#23445D;strokeColor=none;strokeWidth=2;fontFamily=Helvetica;html=1;gradientColor=none;" parent="1" vertex="1">
          <mxGeometry x="308.25" y="1450" width="130" height="60" as="geometry" />
        </mxCell>
        <mxCell id="oTxWkRt0Lg_ctlkLbNbN-153" style="edgeStyle=orthogonalEdgeStyle;rounded=1;jumpStyle=none;html=1;labelBackgroundColor=#ffffff;startArrow=none;startFill=0;endArrow=classic;jettySize=auto;orthogonalLoop=1;strokeColor=#0C343D;strokeWidth=3;fontFamily=Helvetica;fontSize=11;fontColor=#000000;" parent="1" source="oTxWkRt0Lg_ctlkLbNbN-151" target="UZtejUUfSkAsNXARZR-b-272" edge="1">
          <mxGeometry relative="1" as="geometry">
            <Array as="points">
              <mxPoint x="385" y="1560" />
              <mxPoint x="238" y="1560" />
            </Array>
            <mxPoint x="385" y="1420" as="sourcePoint" />
            <mxPoint x="385" y="1460" as="targetPoint" />
          </mxGeometry>
        </mxCell>
        <mxCell id="oTxWkRt0Lg_ctlkLbNbN-154" style="edgeStyle=orthogonalEdgeStyle;rounded=1;jumpStyle=none;html=1;labelBackgroundColor=#ffffff;startArrow=none;startFill=0;endArrow=classic;jettySize=auto;orthogonalLoop=1;strokeColor=#0C343D;strokeWidth=3;fontFamily=Helvetica;fontSize=11;fontColor=#000000;" parent="1" source="oTxWkRt0Lg_ctlkLbNbN-150" target="UZtejUUfSkAsNXARZR-b-272" edge="1">
          <mxGeometry relative="1" as="geometry">
            <Array as="points">
              <mxPoint x="140" y="1560" />
              <mxPoint x="238" y="1560" />
            </Array>
            <mxPoint x="395" y="1430" as="sourcePoint" />
            <mxPoint x="395" y="1470" as="targetPoint" />
          </mxGeometry>
        </mxCell>
        <mxCell id="oTxWkRt0Lg_ctlkLbNbN-155" value="&lt;font color=&quot;#f2f2f2&quot;&gt;Masukkan detail dari&lt;/font&gt;&lt;div&gt;&lt;font color=&quot;#f2f2f2&quot;&gt;produk&lt;/font&gt;&lt;/div&gt;" style="rounded=1;fillColor=#23445D;strokeColor=none;strokeWidth=2;fontFamily=Helvetica;html=1;gradientColor=none;" parent="1" vertex="1">
          <mxGeometry x="1590.0037414965986" y="1748" width="127" height="50" as="geometry" />
        </mxCell>
        <mxCell id="oTxWkRt0Lg_ctlkLbNbN-157" style="edgeStyle=orthogonalEdgeStyle;rounded=1;jumpStyle=none;html=1;labelBackgroundColor=#ffffff;startArrow=none;startFill=0;endArrow=classic;jettySize=auto;orthogonalLoop=1;strokeColor=#0C343D;strokeWidth=3;fontFamily=Helvetica;fontSize=11;fontColor=#000000;" parent="1" source="oTxWkRt0Lg_ctlkLbNbN-148" target="oTxWkRt0Lg_ctlkLbNbN-155" edge="1">
          <mxGeometry relative="1" as="geometry">
            <Array as="points" />
            <mxPoint x="1664" y="1632" as="sourcePoint" />
            <mxPoint x="1664" y="1674" as="targetPoint" />
          </mxGeometry>
        </mxCell>
        <mxCell id="oTxWkRt0Lg_ctlkLbNbN-158" value="&lt;font color=&quot;#f2f2f2&quot;&gt;Kembali ke Menu Utama&lt;/font&gt;&lt;div&gt;&lt;font color=&quot;#f2f2f2&quot;&gt;Administrator&lt;/font&gt;&lt;/div&gt;" style="rounded=1;fillColor=#23445D;strokeColor=none;strokeWidth=2;fontFamily=Helvetica;html=1;gradientColor=none;" parent="1" vertex="1">
          <mxGeometry x="1579" y="1830" width="150" height="50" as="geometry" />
        </mxCell>
        <mxCell id="oTxWkRt0Lg_ctlkLbNbN-159" style="edgeStyle=orthogonalEdgeStyle;rounded=1;jumpStyle=none;html=1;labelBackgroundColor=#ffffff;startArrow=none;startFill=0;endArrow=classic;jettySize=auto;orthogonalLoop=1;strokeColor=#0C343D;strokeWidth=3;fontFamily=Helvetica;fontSize=11;fontColor=#000000;" parent="1" source="oTxWkRt0Lg_ctlkLbNbN-155" target="oTxWkRt0Lg_ctlkLbNbN-158" edge="1">
          <mxGeometry relative="1" as="geometry">
            <Array as="points" />
            <mxPoint x="1664" y="1724" as="sourcePoint" />
            <mxPoint x="1664" y="1758" as="targetPoint" />
          </mxGeometry>
        </mxCell>
        <mxCell id="oTxWkRt0Lg_ctlkLbNbN-160" value="&lt;font color=&quot;#f2f2f2&quot;&gt;Pemilihan jenis produk&lt;/font&gt;" style="rounded=1;fillColor=#23445D;strokeColor=none;strokeWidth=2;fontFamily=Helvetica;html=1;gradientColor=none;" parent="1" vertex="1">
          <mxGeometry x="1776.0037414965986" y="1664" width="127" height="50" as="geometry" />
        </mxCell>
        <mxCell id="oTxWkRt0Lg_ctlkLbNbN-161" value="&lt;font color=&quot;#f2f2f2&quot;&gt;Pilih produk dengan id&lt;/font&gt;" style="rounded=1;fillColor=#23445D;strokeColor=none;strokeWidth=2;fontFamily=Helvetica;html=1;gradientColor=none;" parent="1" vertex="1">
          <mxGeometry x="1776.0037414965986" y="1748" width="127" height="50" as="geometry" />
        </mxCell>
        <mxCell id="oTxWkRt0Lg_ctlkLbNbN-162" style="edgeStyle=orthogonalEdgeStyle;rounded=1;jumpStyle=none;html=1;labelBackgroundColor=#ffffff;startArrow=none;startFill=0;endArrow=classic;jettySize=auto;orthogonalLoop=1;strokeColor=#0C343D;strokeWidth=3;fontFamily=Helvetica;fontSize=11;fontColor=#000000;" parent="1" source="oTxWkRt0Lg_ctlkLbNbN-160" target="oTxWkRt0Lg_ctlkLbNbN-161" edge="1">
          <mxGeometry relative="1" as="geometry">
            <Array as="points" />
            <mxPoint x="1850" y="1632" as="sourcePoint" />
            <mxPoint x="1850" y="1674" as="targetPoint" />
          </mxGeometry>
        </mxCell>
        <mxCell id="oTxWkRt0Lg_ctlkLbNbN-163" value="&lt;font color=&quot;#f2f2f2&quot;&gt;Kembali ke Menu Utama&lt;/font&gt;&lt;div&gt;&lt;font color=&quot;#f2f2f2&quot;&gt;Administrator&lt;/font&gt;&lt;/div&gt;" style="rounded=1;fillColor=#23445D;strokeColor=none;strokeWidth=2;fontFamily=Helvetica;html=1;gradientColor=none;" parent="1" vertex="1">
          <mxGeometry x="1762" y="2100" width="154" height="50" as="geometry" />
        </mxCell>
        <mxCell id="oTxWkRt0Lg_ctlkLbNbN-164" style="edgeStyle=orthogonalEdgeStyle;rounded=1;jumpStyle=none;html=1;labelBackgroundColor=#ffffff;startArrow=none;startFill=0;endArrow=classic;jettySize=auto;orthogonalLoop=1;strokeColor=#0C343D;strokeWidth=3;fontFamily=Helvetica;fontSize=11;fontColor=#000000;" parent="1" source="oTxWkRt0Lg_ctlkLbNbN-161" target="oTxWkRt0Lg_ctlkLbNbN-166" edge="1">
          <mxGeometry relative="1" as="geometry">
            <Array as="points" />
            <mxPoint x="1850" y="1724" as="sourcePoint" />
            <mxPoint x="1850" y="1758" as="targetPoint" />
          </mxGeometry>
        </mxCell>
        <mxCell id="oTxWkRt0Lg_ctlkLbNbN-165" style="edgeStyle=orthogonalEdgeStyle;rounded=1;jumpStyle=none;html=1;labelBackgroundColor=#ffffff;startArrow=none;startFill=0;endArrow=classic;jettySize=auto;orthogonalLoop=1;strokeColor=#0C343D;strokeWidth=3;fontFamily=Helvetica;fontSize=11;fontColor=#000000;" parent="1" source="oTxWkRt0Lg_ctlkLbNbN-140" target="oTxWkRt0Lg_ctlkLbNbN-160" edge="1">
          <mxGeometry relative="1" as="geometry">
            <Array as="points">
              <mxPoint x="1840" y="1640" />
              <mxPoint x="1840" y="1640" />
            </Array>
            <mxPoint x="1664" y="1632" as="sourcePoint" />
            <mxPoint x="1664" y="1674" as="targetPoint" />
          </mxGeometry>
        </mxCell>
        <mxCell id="oTxWkRt0Lg_ctlkLbNbN-166" value="Apakah produk&lt;div&gt;yang ingin&lt;div&gt;dihapus ada?&amp;nbsp;&lt;/div&gt;&lt;/div&gt;" style="rhombus;whiteSpace=wrap;html=1;fillColor=#0050ef;fontColor=#ffffff;strokeColor=#001DBC;" parent="1" vertex="1">
          <mxGeometry x="1765.75" y="1830" width="146.5" height="154.5" as="geometry" />
        </mxCell>
        <mxCell id="oTxWkRt0Lg_ctlkLbNbN-167" style="edgeStyle=orthogonalEdgeStyle;rounded=1;jumpStyle=none;html=1;labelBackgroundColor=#ffffff;startArrow=none;startFill=0;endArrow=classic;jettySize=auto;orthogonalLoop=1;strokeColor=#005700;strokeWidth=3;fontFamily=Helvetica;fontSize=11;fontColor=#000000;fillColor=#008a00;" parent="1" source="oTxWkRt0Lg_ctlkLbNbN-166" target="oTxWkRt0Lg_ctlkLbNbN-171" edge="1">
          <mxGeometry relative="1" as="geometry">
            <Array as="points" />
            <mxPoint x="1850" y="1808" as="sourcePoint" />
            <mxPoint x="1849" y="1840" as="targetPoint" />
          </mxGeometry>
        </mxCell>
        <mxCell id="oTxWkRt0Lg_ctlkLbNbN-168" style="edgeStyle=orthogonalEdgeStyle;rounded=1;jumpStyle=none;html=1;labelBackgroundColor=#ffffff;startArrow=none;startFill=0;endArrow=classic;jettySize=auto;orthogonalLoop=1;strokeColor=#3700CC;strokeWidth=3;fontFamily=Helvetica;fontSize=11;fontColor=#000000;fillColor=#6a00ff;" parent="1" source="oTxWkRt0Lg_ctlkLbNbN-166" target="oTxWkRt0Lg_ctlkLbNbN-137" edge="1">
          <mxGeometry relative="1" as="geometry">
            <Array as="points">
              <mxPoint x="1930" y="1907" />
              <mxPoint x="1930" y="1485" />
            </Array>
            <mxPoint x="1849" y="1994" as="sourcePoint" />
            <mxPoint x="1849" y="2020" as="targetPoint" />
          </mxGeometry>
        </mxCell>
        <mxCell id="oTxWkRt0Lg_ctlkLbNbN-169" value="Iya" style="text;html=1;align=center;verticalAlign=middle;resizable=0;points=[];autosize=1;strokeColor=none;fillColor=none;" parent="1" vertex="1">
          <mxGeometry x="1840" y="1970" width="40" height="30" as="geometry" />
        </mxCell>
        <mxCell id="oTxWkRt0Lg_ctlkLbNbN-170" value="Tidak" style="text;html=1;align=center;verticalAlign=middle;resizable=0;points=[];autosize=1;strokeColor=none;fillColor=none;" parent="1" vertex="1">
          <mxGeometry x="1880" y="1850" width="50" height="30" as="geometry" />
        </mxCell>
        <mxCell id="oTxWkRt0Lg_ctlkLbNbN-171" value="&lt;font color=&quot;#f2f2f2&quot;&gt;Hapus&lt;/font&gt;" style="rounded=1;fillColor=#23445D;strokeColor=none;strokeWidth=2;fontFamily=Helvetica;html=1;gradientColor=none;" parent="1" vertex="1">
          <mxGeometry x="1784.13" y="2020" width="110.75" height="50" as="geometry" />
        </mxCell>
        <mxCell id="oTxWkRt0Lg_ctlkLbNbN-172" style="edgeStyle=orthogonalEdgeStyle;rounded=1;jumpStyle=none;html=1;labelBackgroundColor=#ffffff;startArrow=none;startFill=0;endArrow=classic;jettySize=auto;orthogonalLoop=1;strokeColor=#0C343D;strokeWidth=3;fontFamily=Helvetica;fontSize=11;fontColor=#000000;" parent="1" source="oTxWkRt0Lg_ctlkLbNbN-171" target="oTxWkRt0Lg_ctlkLbNbN-163" edge="1">
          <mxGeometry relative="1" as="geometry">
            <Array as="points" />
            <mxPoint x="1438" y="1810" as="sourcePoint" />
            <mxPoint x="1438" y="1850" as="targetPoint" />
          </mxGeometry>
        </mxCell>
        <mxCell id="ajJM3mliap58EvRAwmsr-100" value="&lt;font color=&quot;#f2f2f2&quot;&gt;Pemilihan jenis produk&lt;/font&gt;" style="rounded=1;fillColor=#23445D;strokeColor=none;strokeWidth=2;fontFamily=Helvetica;html=1;gradientColor=none;" vertex="1" parent="1">
          <mxGeometry x="1960.0037414965986" y="1664" width="127" height="50" as="geometry" />
        </mxCell>
        <mxCell id="ajJM3mliap58EvRAwmsr-101" value="&lt;font color=&quot;#f2f2f2&quot;&gt;Pilih produk dengan id&lt;/font&gt;" style="rounded=1;fillColor=#23445D;strokeColor=none;strokeWidth=2;fontFamily=Helvetica;html=1;gradientColor=none;" vertex="1" parent="1">
          <mxGeometry x="1960.0037414965986" y="1748" width="127" height="50" as="geometry" />
        </mxCell>
        <mxCell id="ajJM3mliap58EvRAwmsr-102" style="edgeStyle=orthogonalEdgeStyle;rounded=1;jumpStyle=none;html=1;labelBackgroundColor=#ffffff;startArrow=none;startFill=0;endArrow=classic;jettySize=auto;orthogonalLoop=1;strokeColor=#0C343D;strokeWidth=3;fontFamily=Helvetica;fontSize=11;fontColor=#000000;" edge="1" parent="1" source="ajJM3mliap58EvRAwmsr-100" target="ajJM3mliap58EvRAwmsr-101">
          <mxGeometry relative="1" as="geometry">
            <Array as="points" />
            <mxPoint x="2034" y="1632" as="sourcePoint" />
            <mxPoint x="2034" y="1674" as="targetPoint" />
          </mxGeometry>
        </mxCell>
        <mxCell id="ajJM3mliap58EvRAwmsr-103" value="&lt;font color=&quot;#f2f2f2&quot;&gt;Kembali ke Menu Utama&lt;/font&gt;&lt;div&gt;&lt;font color=&quot;#f2f2f2&quot;&gt;Administrator&lt;/font&gt;&lt;/div&gt;" style="rounded=1;fillColor=#23445D;strokeColor=none;strokeWidth=2;fontFamily=Helvetica;html=1;gradientColor=none;" vertex="1" parent="1">
          <mxGeometry x="1947" y="2100" width="154" height="50" as="geometry" />
        </mxCell>
        <mxCell id="ajJM3mliap58EvRAwmsr-104" style="edgeStyle=orthogonalEdgeStyle;rounded=1;jumpStyle=none;html=1;labelBackgroundColor=#ffffff;startArrow=none;startFill=0;endArrow=classic;jettySize=auto;orthogonalLoop=1;strokeColor=#0C343D;strokeWidth=3;fontFamily=Helvetica;fontSize=11;fontColor=#000000;" edge="1" parent="1" source="ajJM3mliap58EvRAwmsr-101">
          <mxGeometry relative="1" as="geometry">
            <Array as="points" />
            <mxPoint x="2034" y="1724" as="sourcePoint" />
            <mxPoint x="2023.1" y="1830.1054607508531" as="targetPoint" />
          </mxGeometry>
        </mxCell>
        <mxCell id="ajJM3mliap58EvRAwmsr-105" style="edgeStyle=orthogonalEdgeStyle;rounded=1;jumpStyle=none;html=1;labelBackgroundColor=#ffffff;startArrow=none;startFill=0;endArrow=classic;jettySize=auto;orthogonalLoop=1;strokeColor=#0C343D;strokeWidth=3;fontFamily=Helvetica;fontSize=11;fontColor=#000000;" edge="1" parent="1" target="ajJM3mliap58EvRAwmsr-100" source="oTxWkRt0Lg_ctlkLbNbN-141">
          <mxGeometry relative="1" as="geometry">
            <Array as="points" />
            <mxPoint x="2025" y="1620" as="sourcePoint" />
            <mxPoint x="1849" y="1674" as="targetPoint" />
          </mxGeometry>
        </mxCell>
        <mxCell id="ajJM3mliap58EvRAwmsr-106" value="Apakah produk&lt;div&gt;yang ingin&lt;div&gt;diatur stoknya ada?&amp;nbsp;&lt;/div&gt;&lt;/div&gt;" style="rhombus;whiteSpace=wrap;html=1;fillColor=#0050ef;fontColor=#ffffff;strokeColor=#001DBC;" vertex="1" parent="1">
          <mxGeometry x="1950.75" y="1830" width="146.5" height="154.5" as="geometry" />
        </mxCell>
        <mxCell id="ajJM3mliap58EvRAwmsr-107" style="edgeStyle=orthogonalEdgeStyle;rounded=1;jumpStyle=none;html=1;labelBackgroundColor=#ffffff;startArrow=none;startFill=0;endArrow=classic;jettySize=auto;orthogonalLoop=1;strokeColor=#005700;strokeWidth=3;fontFamily=Helvetica;fontSize=11;fontColor=#000000;fillColor=#008a00;" edge="1" parent="1">
          <mxGeometry relative="1" as="geometry">
            <Array as="points" />
            <mxPoint x="2023.1" y="1984.3945392491469" as="sourcePoint" />
            <mxPoint x="2023.5" y="2020" as="targetPoint" />
          </mxGeometry>
        </mxCell>
        <mxCell id="ajJM3mliap58EvRAwmsr-108" value="Iya" style="text;html=1;align=center;verticalAlign=middle;resizable=0;points=[];autosize=1;strokeColor=none;fillColor=none;" vertex="1" parent="1">
          <mxGeometry x="2024" y="1970" width="40" height="30" as="geometry" />
        </mxCell>
        <mxCell id="ajJM3mliap58EvRAwmsr-109" value="Tidak" style="text;html=1;align=center;verticalAlign=middle;resizable=0;points=[];autosize=1;strokeColor=none;fillColor=none;" vertex="1" parent="1">
          <mxGeometry x="2064" y="1850" width="50" height="30" as="geometry" />
        </mxCell>
        <mxCell id="ajJM3mliap58EvRAwmsr-110" value="&lt;font color=&quot;#f2f2f2&quot;&gt;Atur&lt;/font&gt;" style="rounded=1;fillColor=#23445D;strokeColor=none;strokeWidth=2;fontFamily=Helvetica;html=1;gradientColor=none;" vertex="1" parent="1">
          <mxGeometry x="1969.13" y="2020" width="110.75" height="50" as="geometry" />
        </mxCell>
        <mxCell id="ajJM3mliap58EvRAwmsr-111" style="edgeStyle=orthogonalEdgeStyle;rounded=1;jumpStyle=none;html=1;labelBackgroundColor=#ffffff;startArrow=none;startFill=0;endArrow=classic;jettySize=auto;orthogonalLoop=1;strokeColor=#0C343D;strokeWidth=3;fontFamily=Helvetica;fontSize=11;fontColor=#000000;" edge="1" parent="1">
          <mxGeometry relative="1" as="geometry">
            <Array as="points" />
            <mxPoint x="2023.5" y="2070" as="sourcePoint" />
            <mxPoint x="2023" y="2100" as="targetPoint" />
          </mxGeometry>
        </mxCell>
        <mxCell id="ajJM3mliap58EvRAwmsr-112" style="edgeStyle=orthogonalEdgeStyle;rounded=1;jumpStyle=none;html=1;labelBackgroundColor=#ffffff;startArrow=none;startFill=0;endArrow=classic;jettySize=auto;orthogonalLoop=1;strokeColor=#3700CC;strokeWidth=3;fontFamily=Helvetica;fontSize=11;fontColor=#000000;fillColor=#6a00ff;" edge="1" parent="1" source="ajJM3mliap58EvRAwmsr-106" target="oTxWkRt0Lg_ctlkLbNbN-137">
          <mxGeometry relative="1" as="geometry">
            <Array as="points">
              <mxPoint x="2120" y="1917" />
              <mxPoint x="2120" y="1485" />
            </Array>
            <mxPoint x="1922" y="1917" as="sourcePoint" />
            <mxPoint x="1817" y="1495" as="targetPoint" />
          </mxGeometry>
        </mxCell>
        <mxCell id="ajJM3mliap58EvRAwmsr-113" value="&lt;font color=&quot;#f2f2f2&quot;&gt;Memuat&amp;nbsp;&lt;/font&gt;&lt;div&gt;&lt;font color=&quot;#f2f2f2&quot;&gt;data_transaksi&lt;/font&gt;&lt;/div&gt;" style="rounded=1;fillColor=#23445D;strokeColor=none;strokeWidth=2;fontFamily=Helvetica;html=1;gradientColor=none;" vertex="1" parent="1">
          <mxGeometry x="2181.5037414965986" y="1642" width="127" height="50" as="geometry" />
        </mxCell>
        <mxCell id="ajJM3mliap58EvRAwmsr-114" value="&lt;font color=&quot;#f2f2f2&quot;&gt;Pemilihan perhitungan transaksi&lt;/font&gt;&lt;div&gt;&lt;font color=&quot;#f2f2f2&quot;&gt;(harian,mingguan,bulanan&amp;nbsp;&lt;/font&gt;&lt;/div&gt;&lt;div&gt;&lt;font color=&quot;#f2f2f2&quot;&gt;dan tahunan)&lt;/font&gt;&lt;/div&gt;" style="rounded=1;fillColor=#23445D;strokeColor=none;strokeWidth=2;fontFamily=Helvetica;html=1;gradientColor=none;" vertex="1" parent="1">
          <mxGeometry x="2150" y="1720" width="200" height="90" as="geometry" />
        </mxCell>
        <mxCell id="ajJM3mliap58EvRAwmsr-115" value="&lt;font color=&quot;#f2f2f2&quot;&gt;Tampilkan&lt;/font&gt;" style="rounded=1;fillColor=#23445D;strokeColor=none;strokeWidth=2;fontFamily=Helvetica;html=1;gradientColor=none;" vertex="1" parent="1">
          <mxGeometry x="2180.5" y="1840" width="130" height="50" as="geometry" />
        </mxCell>
        <mxCell id="ajJM3mliap58EvRAwmsr-117" value="&lt;font color=&quot;#f2f2f2&quot;&gt;Kembali ke Menu Utama&lt;/font&gt;&lt;div&gt;&lt;font color=&quot;#f2f2f2&quot;&gt;Administrator&lt;/font&gt;&lt;/div&gt;" style="rounded=1;fillColor=#23445D;strokeColor=none;strokeWidth=2;fontFamily=Helvetica;html=1;gradientColor=none;" vertex="1" parent="1">
          <mxGeometry x="2170" y="1920" width="150" height="50" as="geometry" />
        </mxCell>
        <mxCell id="ajJM3mliap58EvRAwmsr-118" style="edgeStyle=orthogonalEdgeStyle;rounded=1;jumpStyle=none;html=1;labelBackgroundColor=#ffffff;startArrow=none;startFill=0;endArrow=classic;jettySize=auto;orthogonalLoop=1;strokeColor=#0C343D;strokeWidth=3;fontFamily=Helvetica;fontSize=11;fontColor=#000000;" edge="1" parent="1" source="oTxWkRt0Lg_ctlkLbNbN-146" target="ajJM3mliap58EvRAwmsr-113">
          <mxGeometry relative="1" as="geometry">
            <Array as="points">
              <mxPoint x="2255" y="1590" />
              <mxPoint x="2255" y="1590" />
            </Array>
            <mxPoint x="1753" y="1520" as="sourcePoint" />
            <mxPoint x="2255" y="1582" as="targetPoint" />
          </mxGeometry>
        </mxCell>
        <mxCell id="ajJM3mliap58EvRAwmsr-119" style="edgeStyle=orthogonalEdgeStyle;rounded=1;jumpStyle=none;html=1;labelBackgroundColor=#ffffff;startArrow=none;startFill=0;endArrow=classic;jettySize=auto;orthogonalLoop=1;strokeColor=#0C343D;strokeWidth=3;fontFamily=Helvetica;fontSize=11;fontColor=#000000;" edge="1" parent="1" source="ajJM3mliap58EvRAwmsr-113" target="ajJM3mliap58EvRAwmsr-114">
          <mxGeometry relative="1" as="geometry">
            <Array as="points">
              <mxPoint x="2260" y="1680" />
              <mxPoint x="2260" y="1680" />
            </Array>
            <mxPoint x="2255" y="1632" as="sourcePoint" />
            <mxPoint x="2255" y="1652" as="targetPoint" />
          </mxGeometry>
        </mxCell>
        <mxCell id="ajJM3mliap58EvRAwmsr-120" style="edgeStyle=orthogonalEdgeStyle;rounded=1;jumpStyle=none;html=1;labelBackgroundColor=#ffffff;startArrow=none;startFill=0;endArrow=classic;jettySize=auto;orthogonalLoop=1;strokeColor=#0C343D;strokeWidth=3;fontFamily=Helvetica;fontSize=11;fontColor=#000000;" edge="1" parent="1" source="ajJM3mliap58EvRAwmsr-114" target="ajJM3mliap58EvRAwmsr-115">
          <mxGeometry relative="1" as="geometry">
            <Array as="points">
              <mxPoint x="2250" y="1820" />
              <mxPoint x="2250" y="1820" />
            </Array>
            <mxPoint x="2255" y="1830" as="sourcePoint" />
            <mxPoint x="2265" y="1712" as="targetPoint" />
          </mxGeometry>
        </mxCell>
        <mxCell id="ajJM3mliap58EvRAwmsr-121" style="edgeStyle=orthogonalEdgeStyle;rounded=1;jumpStyle=none;html=1;labelBackgroundColor=#ffffff;startArrow=none;startFill=0;endArrow=classic;jettySize=auto;orthogonalLoop=1;strokeColor=#0C343D;strokeWidth=3;fontFamily=Helvetica;fontSize=11;fontColor=#000000;" edge="1" parent="1" source="ajJM3mliap58EvRAwmsr-115" target="ajJM3mliap58EvRAwmsr-117">
          <mxGeometry relative="1" as="geometry">
            <Array as="points" />
            <mxPoint x="2275" y="1702" as="sourcePoint" />
            <mxPoint x="2275" y="1722" as="targetPoint" />
          </mxGeometry>
        </mxCell>
      </root>
    </mxGraphModel>
  </diagram>
</mxfile>
